<svg width="240" height="100" viewBox="0 0 240 100" fill="none" xmlns="http://www.w3.org/2000/svg">
<g clip-path="url(#clip0_8_403)">
<path d="M155 10.8162H149.933L148.865 13.8796H146.555L151.445 0.723877H153.497L158.388 13.8796H156.077L155.01 10.8162H155ZM150.637 9.01175H154.378L152.513 3.51448L150.648 9.01175H150.637Z" fill="#9F0D1A"/>
<path d="M163.724 12.3374C164.253 12.3374 164.698 12.159 165.061 11.8863C165.413 11.5296 165.589 11.1624 165.589 10.7113H167.641C167.641 11.3407 167.465 11.8863 167.112 12.4213C166.76 12.9668 166.314 13.3235 165.693 13.6802C165.071 13.953 164.449 14.1313 163.734 14.1313C162.398 14.1313 161.331 13.6802 160.533 12.778C159.735 11.8758 159.372 10.7113 159.372 9.08516V8.8124C159.372 7.28071 159.724 6.10573 160.533 5.21399C161.331 4.31177 162.398 3.86066 163.734 3.86066C164.895 3.86066 165.776 4.21735 166.584 4.84681C167.382 5.47627 167.651 6.37849 167.744 7.55348H165.693C165.693 7.00795 165.517 6.56733 165.164 6.20014C164.812 5.84345 164.366 5.65461 163.828 5.65461C163.113 5.65461 162.584 5.92738 162.232 6.46242C161.88 7.00795 161.704 7.72134 161.61 8.80191V9.1586C161.61 10.2392 161.786 11.047 162.139 11.4981C162.491 12.0436 163.03 12.3059 163.745 12.3059L163.724 12.3374Z" fill="#9F0D1A"/>
<path d="M175.018 13.869C174.925 13.6907 174.842 13.4179 174.749 12.9668C174.034 13.6907 173.236 14.0474 172.262 14.0474C171.288 14.0474 170.48 13.7746 169.858 13.2396C169.236 12.6941 168.967 11.9807 168.967 11.1624C168.967 10.0818 169.319 9.35793 170.128 8.72847C170.925 8.18294 171.993 7.92066 173.423 7.92066H174.759V7.2912C174.759 6.74567 174.583 6.38898 174.314 6.11621C174.044 5.84345 173.599 5.6651 173.07 5.6651C172.542 5.6651 172.179 5.75952 171.827 6.0218C171.475 6.29456 171.381 6.56733 171.381 7.00795H169.247C169.247 6.46242 169.423 5.92738 169.775 5.47627C170.128 5.02515 170.573 4.66846 171.195 4.39569C171.816 4.12293 172.438 4.039 173.236 4.039C174.397 4.039 175.288 4.31177 175.909 4.94123C176.531 5.57068 176.894 6.29456 176.977 7.37513V11.7918C176.977 12.6941 177.07 13.4179 177.329 13.869V14.0474H175.018V13.869ZM172.708 12.3374C173.153 12.3374 173.505 12.2429 173.951 11.9807C174.303 11.8023 174.573 11.5296 174.842 11.1729V9.36842H173.682C172.884 9.36842 172.262 9.54676 171.899 9.81953C171.454 10.0923 171.278 10.5434 171.278 10.9945C171.278 11.4456 171.454 11.7184 171.723 11.9807C171.816 12.159 172.169 12.3374 172.697 12.3374H172.708Z" fill="#9F0D1A"/>
<path d="M178.759 8.91733C178.759 7.38565 179.111 6.21066 179.826 5.31893C180.541 4.4167 181.422 3.96559 182.582 3.96559C183.556 3.96559 184.447 4.32228 185.069 5.04616V0H187.204V13.8691H185.245L185.152 12.8829C184.53 13.6907 183.639 14.0579 182.572 14.0579C181.411 14.0579 180.52 13.6068 179.816 12.7046C179.101 11.7184 178.748 10.5434 178.748 8.91733H178.759ZM180.987 9.09568C180.987 10.0818 181.163 10.9001 181.515 11.4352C181.867 11.9807 182.406 12.243 183.121 12.243C184.012 12.243 184.634 11.8863 185.079 11.068V6.92405C184.727 6.11624 184.012 5.74906 183.121 5.74906C182.406 5.74906 181.878 6.02182 181.515 6.55686C181.163 7.10239 180.987 7.99412 180.987 9.0747V9.09568Z" fill="#9F0D1A"/>
<path d="M193.7 14.0579C192.364 14.0579 191.213 13.6068 190.322 12.7046C189.431 11.8023 189.079 10.6378 189.079 9.19008V9.01174C189.079 8.02559 189.255 7.12336 189.607 6.39948C189.96 5.67561 190.499 5.04615 191.213 4.59504C191.928 4.14392 192.633 3.96558 193.441 3.96558C194.778 3.96558 195.752 4.41669 196.467 5.22449C197.182 6.0323 197.534 7.30171 197.534 8.8229V9.72512H191.307C191.4 10.5329 191.659 11.1624 192.105 11.6135C192.55 12.0646 193.172 12.3374 193.887 12.3374C194.861 12.3374 195.669 11.8863 196.291 11.0785L197.451 12.2534C197.099 12.799 196.56 13.334 195.938 13.6068C195.317 13.8796 194.602 14.0579 193.711 14.0579H193.7ZM193.524 5.67561C192.902 5.67561 192.457 5.85395 192.105 6.30506C191.752 6.75618 191.483 7.29122 191.39 8.10951H195.482V7.93117C195.389 7.20729 195.213 6.67225 194.861 6.22114C194.591 5.86444 194.063 5.67561 193.524 5.67561Z" fill="#9F0D1A"/>
<path d="M201.358 4.14392L201.451 5.13007C202.166 4.32226 203.057 3.95508 204.207 3.95508C205.544 3.95508 206.341 4.50061 206.88 5.48676C207.595 4.50061 208.569 3.95508 209.813 3.95508C210.88 3.95508 211.678 4.22784 212.217 4.8573C212.755 5.48676 213.014 6.29457 213.014 7.46956V13.8691H210.88V7.48005C210.88 6.85059 210.704 6.39948 210.434 6.12671C210.165 5.85395 209.719 5.6756 209.098 5.6756C208.569 5.6756 208.207 5.77002 207.854 6.03229C207.502 6.30506 207.326 6.66175 207.233 7.11286V13.7746H205.098V7.48005C205.098 6.30506 204.476 5.77002 203.316 5.77002C202.425 5.77002 201.803 6.12671 201.451 6.85059V13.9635H199.316V4.14392H201.358Z" fill="#9F0D1A"/>
<path d="M215.232 1.53169C215.232 1.17499 215.325 0.902227 215.584 0.723881C215.853 0.545534 216.112 0.367188 216.475 0.367188C216.838 0.367188 217.19 0.461606 217.366 0.723881C217.542 0.902227 217.718 1.26941 217.718 1.53169C217.718 1.88838 217.625 2.16114 217.366 2.33949C217.19 2.51784 216.838 2.69618 216.475 2.69618C216.112 2.69618 215.76 2.60177 215.584 2.33949C215.315 2.16114 215.232 1.88838 215.232 1.53169ZM217.542 13.8691H215.315V4.14394H217.449V13.8691H217.542Z" fill="#9F0D1A"/>
<path d="M223.863 12.3374C224.402 12.3374 224.837 12.159 225.2 11.8863C225.552 11.5296 225.728 11.1624 225.728 10.7113H227.769C227.769 11.3407 227.593 11.8863 227.241 12.4213C226.889 12.9668 226.443 13.3235 225.821 13.6802C225.2 13.953 224.578 14.1313 223.863 14.1313C222.526 14.1313 221.459 13.6802 220.661 12.778C219.863 11.8758 219.501 10.7113 219.501 9.08516V8.8124C219.501 7.28071 219.853 6.10573 220.661 5.21399C221.459 4.31177 222.526 3.86066 223.863 3.86066C225.023 3.86066 225.915 4.21735 226.712 4.84681C227.51 5.47627 227.78 6.37849 227.873 7.55348H225.821C225.821 7.00795 225.645 6.56733 225.283 6.20014C224.93 5.84345 224.485 5.65461 223.946 5.65461C223.231 5.65461 222.702 5.92738 222.35 6.46242C221.998 7.00795 221.811 7.72134 221.728 8.80191V9.1586C221.728 10.2392 221.905 11.047 222.267 11.4981C222.62 12.0436 223.158 12.3059 223.863 12.3059V12.3374Z" fill="#9F0D1A"/>
<path d="M155 29.1859H149.933L148.865 32.2493H146.555L151.445 19.0936H153.497L158.388 32.2493H156.077L155.01 29.1859H155ZM150.637 27.3814H154.378L152.513 21.8842L150.648 27.3814H150.637Z" fill="#9F0D1A"/>
<path d="M162.294 20.0902V22.5241H163.983V24.1502H162.294V29.6475C162.294 30.0042 162.387 30.277 162.47 30.4553C162.646 30.6336 162.916 30.7281 163.268 30.7281C163.538 30.7281 163.797 30.7281 164.066 30.6336V32.3437C163.527 32.522 163.082 32.522 162.646 32.522C160.957 32.522 160.16 31.6198 160.16 29.7314V24.2341H158.554V22.5241H160.16V20.1846H162.294V20.0902Z" fill="#9F0D1A"/>
<path d="M168.345 20.0902V22.5241H170.034V24.1502H168.345V29.6475C168.345 30.0042 168.439 30.277 168.522 30.4553C168.698 30.6336 168.967 30.7281 169.319 30.7281C169.589 30.7281 169.848 30.7281 170.117 30.6336V32.3437C169.589 32.522 169.143 32.522 168.698 32.522C167.009 32.522 166.211 31.6198 166.211 29.7314V24.2341H164.605V22.5241H166.211V20.1846H168.345V20.0902Z" fill="#9F0D1A"/>
<path d="M171.723 19.9958C171.723 19.6391 171.817 19.3663 172.076 19.188C172.345 19.0096 172.614 18.8313 172.967 18.8313C173.319 18.8313 173.682 18.9257 173.858 19.188C174.034 19.3663 174.21 19.7335 174.21 19.9958C174.21 20.3525 174.117 20.6253 173.858 20.8036C173.682 20.9819 173.329 21.1603 172.967 21.1603C172.604 21.1603 172.252 21.0659 172.076 20.8036C171.806 20.5308 171.723 20.2581 171.723 19.9958ZM174.034 32.2493H171.899V22.5241H174.034V32.2493Z" fill="#9F0D1A"/>
<path d="M179.111 20.0902V22.5241H180.8V24.1502H179.111V29.6475C179.111 30.0042 179.204 30.277 179.287 30.4553C179.463 30.6336 179.733 30.7281 180.085 30.7281C180.355 30.7281 180.624 30.7281 180.883 30.6336V32.3437C180.355 32.522 179.899 32.522 179.463 32.522C177.774 32.522 176.977 31.6198 176.977 29.7314V24.2341H175.371V22.5241H176.977V20.1846H179.111V20.0902Z" fill="#9F0D1A"/>
<path d="M188.281 31.347C187.659 32.0709 186.768 32.522 185.608 32.522C184.541 32.522 183.743 32.2492 183.204 31.6198C182.676 30.9903 182.406 30.0881 182.406 28.9131V22.608H184.541V28.9131C184.541 30.172 185.069 30.8015 186.053 30.8015C187.121 30.8015 187.836 30.4448 188.188 29.6265V22.5136H190.322V32.3332H188.281V31.347Z" fill="#9F0D1A"/>
<path d="M192.187 27.2975C192.187 25.7658 192.54 24.5908 193.255 23.6991C193.97 22.7969 194.861 22.3458 196.011 22.3458C196.995 22.3458 197.876 22.7025 198.498 23.4263V18.3802H200.632V32.2493H198.674L198.581 31.2631C197.959 32.0709 197.068 32.4381 196.001 32.4381C194.84 32.4381 193.959 31.987 193.244 31.0848C192.529 30.1825 192.177 28.9236 192.177 27.2975H192.187ZM194.415 27.4759C194.415 28.462 194.591 29.2803 194.944 29.8154C195.296 30.3609 195.835 30.6232 196.55 30.6232C197.441 30.6232 198.063 30.2665 198.508 29.4482V25.3042C198.156 24.4964 197.441 24.1292 196.55 24.1292C195.835 24.1292 195.306 24.402 194.944 24.937C194.591 25.4826 194.415 26.3743 194.415 27.4549V27.4759Z" fill="#9F0D1A"/>
<path d="M207.232 32.4276C205.896 32.4276 204.746 31.9765 203.855 31.0742C202.964 30.172 202.611 28.997 202.611 27.5598V27.287C202.611 26.3009 202.787 25.3986 203.14 24.6748C203.492 23.9509 204.031 23.3214 204.746 22.8703C205.461 22.4192 206.165 22.2408 206.973 22.2408C208.31 22.2408 209.284 22.692 209.999 23.4998C210.714 24.3076 211.066 25.5665 211.066 27.0982V28.0004H204.746C204.839 28.8082 205.098 29.4377 205.544 29.8888C205.989 30.3399 206.611 30.6126 207.326 30.6126C208.3 30.6126 209.108 30.1615 209.73 29.3537L210.89 30.6126C210.538 31.1582 209.999 31.6932 209.377 31.966C208.756 32.3227 208.041 32.4171 207.243 32.4171L207.232 32.4276ZM206.963 24.0453C206.341 24.0453 205.896 24.2236 205.544 24.6748C205.191 25.1259 204.922 25.6609 204.829 26.4792H208.921V26.3009C208.828 25.577 208.652 25.0419 208.3 24.5908C208.03 24.2341 207.502 24.0453 206.963 24.0453Z" fill="#9F0D1A"/>
<path d="M155 47.6605H149.933L148.865 50.7239H146.555L151.445 37.5682H153.497L158.388 50.7239H156.077L155.01 47.6605H155ZM150.637 45.7721H154.378L152.513 40.2748L150.648 45.7721H150.637Z" fill="#9F0D1A"/>
<path d="M162.294 38.5543V40.8938H163.983V42.5199H162.294V48.0172C162.294 48.3739 162.387 48.6466 162.47 48.825C162.646 49.0033 162.916 49.0977 163.268 49.0977C163.538 49.0977 163.797 49.0977 164.066 49.0033V50.7134C163.527 50.8917 163.082 50.8917 162.646 50.8917C160.957 50.8917 160.16 49.9895 160.16 48.1011V42.6038H158.554V40.9777H160.16V38.6382H162.294V38.5438V38.5543Z" fill="#9F0D1A"/>
<path d="M168.345 38.5543V40.8938H170.034V42.5199H168.345V48.0172C168.345 48.3739 168.439 48.6466 168.522 48.825C168.698 49.0033 168.967 49.0977 169.319 49.0977C169.589 49.0977 169.848 49.0977 170.117 49.0033V50.7134C169.589 50.8917 169.143 50.8917 168.698 50.8917C167.009 50.8917 166.211 49.9895 166.211 48.1011V42.6038H164.605V40.9777H166.211V38.6382H168.345V38.5438V38.5543Z" fill="#9F0D1A"/>
<path d="M175.992 50.9023C174.656 50.9023 173.505 50.4511 172.614 49.5489C171.723 48.6467 171.371 47.4822 171.371 46.0344V45.7617C171.371 44.7755 171.547 43.8733 171.899 43.1494C172.252 42.4255 172.791 41.7961 173.505 41.345C174.22 40.8939 174.925 40.7155 175.733 40.7155C177.07 40.7155 178.044 41.1666 178.759 41.9744C179.474 42.7822 179.826 44.0412 179.826 45.5728V46.4751H173.505C173.599 47.2829 173.858 47.9123 174.303 48.3634C174.749 48.8145 175.371 49.0873 176.086 49.0873C177.06 49.0873 177.868 48.6362 178.489 47.8284L179.65 49.0034C179.298 49.5489 178.759 50.084 178.137 50.3567C177.515 50.7134 176.8 50.9023 176.003 50.9023H175.992ZM175.723 42.52C175.101 42.52 174.656 42.6983 174.303 43.1494C173.951 43.6005 173.682 44.1356 173.588 44.9539H177.681V44.7755C177.588 44.0516 177.412 43.5166 177.06 43.0655C176.79 42.7088 176.345 42.52 175.723 42.52Z" fill="#9F0D1A"/>
<path d="M183.556 40.9043L183.65 42.0793C184.364 41.1771 185.338 40.726 186.499 40.726C188.54 40.726 189.525 41.9009 189.618 44.2404V50.7239H187.483V44.4188C187.483 43.7893 187.39 43.3382 187.131 43.0654C186.862 42.7927 186.416 42.6143 185.794 42.6143C184.903 42.6143 184.282 42.971 183.836 43.7893V50.7239H181.525V40.9043H183.577H183.556Z" fill="#9F0D1A"/>
<path d="M191.296 45.7616C191.296 44.2299 191.649 43.055 192.364 42.1632C193.079 41.261 193.97 40.8099 195.12 40.8099C196.094 40.8099 196.985 41.1666 197.607 41.8905V36.8443H199.741V50.7134H197.783L197.689 49.7272C197.068 50.535 196.177 50.9022 195.109 50.9022C193.949 50.9022 193.058 50.4511 192.353 49.5489C191.638 48.5627 191.286 47.2933 191.286 45.7616H191.296ZM193.431 45.94C193.431 46.9261 193.607 47.7444 193.959 48.2795C194.312 48.825 194.85 49.0873 195.565 49.0873C196.456 49.0873 197.078 48.7306 197.524 47.9123V43.7683C197.171 42.9605 196.456 42.5934 195.565 42.5934C194.85 42.5934 194.322 42.8661 193.959 43.4012C193.607 43.9467 193.431 44.7545 193.431 45.919V45.94Z" fill="#9F0D1A"/>
<path d="M207.761 50.7238C207.668 50.5455 207.585 50.2727 207.492 49.8216C206.777 50.5455 205.979 50.9022 205.005 50.9022C204.031 50.9022 203.223 50.6294 202.601 50.0944C201.979 49.5489 201.71 48.8355 201.71 48.0172C201.71 46.9366 202.062 46.2127 202.87 45.5833C203.668 45.0377 204.735 44.7755 206.165 44.7755H207.502V44.146C207.502 43.6005 207.326 43.2438 207.056 42.971C206.787 42.6982 206.341 42.5199 205.813 42.5199C205.285 42.5199 204.922 42.6143 204.57 42.8766C204.217 43.1494 204.124 43.4221 204.124 43.8627H201.99C201.99 43.3172 202.166 42.7822 202.528 42.3311C202.881 41.8799 203.326 41.5233 203.948 41.2505C204.57 40.9777 205.191 40.8938 206 40.8938C207.16 40.8938 208.041 41.1666 208.673 41.796C209.295 42.4255 209.657 43.1494 209.74 44.2299V48.6466C209.74 49.5489 209.833 50.2727 210.092 50.7238V50.9022H207.782V50.7238H207.761ZM205.357 49.0977C205.803 49.0977 206.155 49.0033 206.601 48.741C206.953 48.5627 207.222 48.2899 207.492 47.9332V46.1288H206.331C205.533 46.1288 204.912 46.3071 204.549 46.5799C204.103 46.8527 203.927 47.3038 203.927 47.7549C203.927 48.206 204.103 48.4788 204.373 48.741C204.549 49.0138 204.901 49.0977 205.347 49.0977H205.357Z" fill="#9F0D1A"/>
<path d="M213.905 40.9043L213.999 42.0793C214.714 41.1771 215.688 40.726 216.848 40.726C218.889 40.726 219.874 41.9009 219.967 44.2404V50.7239H217.832V44.4188C217.832 43.7893 217.739 43.3382 217.48 43.0654C217.211 42.7927 216.765 42.6143 216.144 42.6143C215.252 42.6143 214.631 42.971 214.185 43.7893V50.7239H212.051V40.9043H213.916H213.905Z" fill="#9F0D1A"/>
<path d="M226.008 49.0978C226.536 49.0978 226.982 48.9195 227.344 48.6467C227.697 48.29 227.873 47.9228 227.873 47.4717H229.924C229.924 48.1012 229.748 48.6467 229.396 49.1817C229.044 49.7273 228.598 50.084 227.976 50.4406C227.355 50.7134 226.733 50.8918 226.018 50.8918C224.681 50.8918 223.614 50.4406 222.816 49.5384C222.019 48.6362 221.656 47.4612 221.656 45.8456V45.5728C221.656 44.0411 222.008 42.8662 222.816 41.9744C223.614 41.0722 224.681 40.6211 226.018 40.6211C227.179 40.6211 228.059 40.9778 228.868 41.6072C229.665 42.2367 229.935 43.1389 230.028 44.3139H227.976C227.976 43.7684 227.8 43.3278 227.448 42.9606C227.096 42.6039 226.65 42.4151 226.111 42.4151C225.396 42.4151 224.868 42.6878 224.505 43.2229C224.153 43.7684 223.977 44.4818 223.884 45.5623V45.919C223.884 46.9996 224.06 47.8074 224.412 48.2585C224.764 48.8041 225.303 49.0663 226.018 49.0663L226.008 49.0978Z" fill="#9F0D1A"/>
<path d="M235.883 50.9023C234.546 50.9023 233.396 50.4511 232.505 49.5489C231.614 48.6467 231.261 47.4822 231.261 46.0344V45.7617C231.261 44.7755 231.437 43.8733 231.79 43.1494C232.142 42.4255 232.681 41.7961 233.396 41.345C234.111 40.8939 234.815 40.7155 235.623 40.7155C236.96 40.7155 237.934 41.1666 238.649 41.9744C239.364 42.7822 239.716 44.0412 239.716 45.5728V46.4751H233.396C233.489 47.2829 233.748 47.9123 234.194 48.3634C234.639 48.8145 235.261 49.0873 235.976 49.0873C236.95 49.0873 237.758 48.6362 238.38 47.8284L239.54 49.0034C239.188 49.5489 238.649 50.084 238.027 50.3567C237.406 50.7134 236.691 50.9023 235.893 50.9023H235.883ZM235.613 42.52C234.991 42.52 234.546 42.6983 234.194 43.1494C233.841 43.6005 233.572 44.1356 233.479 44.9539H237.571V44.7755C237.478 44.0516 237.302 43.5166 236.95 43.0655C236.68 42.7088 236.235 42.52 235.613 42.52Z" fill="#9F0D1A"/>
<path d="M32.2143 40.9043H16.4646L13.7084 49.9161H1.41956L18.8582 1.6261H29.6239L47.2387 49.9161H34.9601L32.2039 40.9043H32.2143ZM19.2208 31.8926H29.4581L24.298 15.1385L19.2312 31.8926H19.2208Z" fill="#9F0D1A"/>
<path d="M77.8573 40.9043H62.1076L59.3514 49.9161H47.0729L64.5944 1.6261H75.3601L92.9749 49.9161H80.6031L77.8469 40.9043H77.8573ZM64.8638 31.8926H75.1011L69.941 15.1385L64.8742 31.8926H64.8638Z" fill="#9F0D1A"/>
<path d="M123.5 40.9043H107.751L104.994 49.9161H92.7158L110.154 1.6261H121.013L138.628 49.9161H126.35L123.5 40.9043ZM110.507 31.8926H120.744L115.677 15.1385L110.517 31.8926H110.507Z" fill="#9F0D1A"/>
<path d="M17.9774 82.1654C17.9774 80.9064 17.5319 79.9098 16.6408 79.2803C15.7497 78.5565 14.154 77.927 11.833 77.1192C9.52235 76.3114 7.74015 75.5875 6.4035 74.8636C2.75621 72.8808 0.891114 70.1742 0.891114 66.7541C0.891114 64.9497 1.33666 63.418 2.31066 62.0647C3.28465 60.7113 4.71456 59.6307 6.49676 58.8229C8.36185 58.0151 10.4135 57.6479 12.6412 57.6479C14.869 57.6479 17.0034 58.0991 18.7856 58.9069C20.5678 59.7147 21.9874 60.9841 22.9717 62.5053C23.9457 64.037 24.4845 65.747 24.4845 67.7298H17.9049C17.9049 66.1981 17.4594 65.1175 16.4854 64.2153C15.5114 63.3131 14.2576 62.9564 12.5687 62.9564C10.9626 62.9564 9.71922 63.3131 8.82812 64.037C7.93702 64.7608 7.49147 65.6631 7.49147 66.7436C7.49147 67.8242 8.03028 68.7264 9.09752 69.4503C10.1648 70.1742 11.6776 70.8036 13.7292 71.4331C17.4697 72.6081 20.2259 74.0453 22.0081 75.6714C23.6971 77.3815 24.5882 79.4587 24.5882 81.9765C24.5882 84.7671 23.5209 87.0227 21.4693 88.6383C19.3348 90.2644 16.5786 91.0722 13.0142 91.0722C10.5274 91.0722 8.29968 90.6211 6.24808 89.7189C4.19647 88.8166 2.69404 87.5577 1.61643 85.9316C0.549181 84.3055 0.010376 82.5116 0.010376 80.4344H6.6729C6.6729 84.0328 8.8074 85.8372 12.9935 85.8372C14.5995 85.8372 15.8429 85.4805 16.6408 84.8511C17.4386 84.2216 17.9774 83.225 17.9774 82.1444V82.1654Z" fill="#999999"/>
<path d="M38.6178 85.8582C39.7783 85.8582 40.7523 85.5015 41.4672 84.872C42.1822 84.2426 42.6277 83.3403 42.6277 82.2598H48.5857C48.5857 83.8859 48.1401 85.4175 47.249 86.7604C46.3579 88.1137 45.1974 89.1943 43.695 89.9182C42.1822 90.6421 40.4933 91.0932 38.7111 91.0932C35.3332 91.0932 32.5666 90.0126 30.6186 87.757C28.6603 85.5959 27.6863 82.5325 27.6863 78.6614V78.2103C27.6863 74.5174 28.6603 71.5485 30.6186 69.2929C32.577 67.0374 35.2503 65.9568 38.7111 65.9568C41.7366 65.9568 44.0473 66.859 45.9227 68.569C47.7049 70.2791 48.6789 72.6186 48.6789 75.4196H42.721C42.721 74.1607 42.2755 73.1641 41.5605 72.3563C40.8455 71.5485 39.8716 71.1813 38.6282 71.1813C37.1154 71.1813 36.0481 71.7268 35.2503 72.8074C34.4524 73.888 34.0898 75.6924 34.0898 78.1263V78.7558C34.0898 81.2736 34.4421 83.0781 35.2503 84.1586C35.9652 85.3336 37.1154 85.8687 38.6282 85.8687L38.6178 85.8582Z" fill="#999999"/>
<path d="M58.5431 69.0936C60.2321 67.0163 62.3666 66.0302 64.9466 66.0302C70.1067 66.0302 72.78 69.0936 72.8629 75.1259V90.621H66.4594V75.3042C66.4594 73.9509 66.19 72.8703 65.5683 72.2409C64.9466 71.6114 63.9623 71.2547 62.636 71.2547C60.7709 71.2547 59.4342 71.9786 58.5431 73.4158V90.621H52.1396V56.3051H58.5431V69.0936Z" fill="#999999"/>
<path d="M76.6139 78.3781C76.6139 75.9442 77.0594 73.8775 77.9505 71.9786C78.8416 70.0902 80.1783 68.6425 81.8672 67.6563C83.5562 66.6702 85.6078 66.1246 87.8251 66.1246C91.0269 66.1246 93.7002 67.1108 95.7414 69.0936C97.793 71.0764 98.9432 73.783 99.1193 77.2031V78.8292C99.1193 82.522 98.1453 85.491 96.0937 87.7465C94.0525 90.0021 91.2859 91.0827 87.8148 91.0827C84.3436 91.0827 81.5874 90.0021 79.5358 87.7465C77.4842 85.491 76.417 82.4276 76.417 78.6509V78.3781H76.5931H76.6139ZM82.9345 78.8292C82.9345 81.1687 83.38 82.8787 84.1778 84.1481C85.0689 85.4071 86.2295 85.9526 87.8251 85.9526C89.3379 85.9526 90.5813 85.3231 91.4724 84.1481C92.3635 82.9731 92.8091 80.9903 92.8091 78.3781C92.8091 76.1225 92.3635 74.4125 91.4724 73.1536C90.5813 71.8947 89.4208 71.2652 87.8251 71.2652C86.2295 71.2652 85.0689 71.8947 84.1778 73.0697C83.38 74.3286 82.9345 76.2274 82.9345 78.8397V78.8292Z" fill="#999999"/>
<path d="M109.885 90.6315H103.482V56.3051H109.885V90.6315Z" fill="#999999"/>
<path d="M128.93 90.6316C128.66 90.086 128.401 89.3726 128.308 88.4704C126.795 90.1804 124.744 91.0827 122.257 91.0827C119.946 91.0827 117.988 90.3588 116.475 89.0055C114.962 87.6521 114.164 85.9421 114.164 83.781C114.164 81.2631 115.138 79.2803 117.014 77.927C118.879 76.5736 121.646 75.8498 125.117 75.8498H128.049V74.4964C128.049 73.4159 127.78 72.5136 127.158 71.7898C126.619 71.1603 125.738 70.8036 124.485 70.8036C123.417 70.8036 122.526 71.0764 121.998 71.6114C121.376 72.1569 121.107 72.8703 121.107 73.7726H114.703C114.703 72.3353 115.149 71.0659 115.947 69.9014C116.744 68.7264 117.988 67.7402 119.594 67.1108C121.19 66.3869 122.889 66.1246 124.847 66.1246C127.78 66.1246 130.101 66.8485 131.872 68.3802C133.655 69.9119 134.452 71.9786 134.452 74.6853V85.1343C134.452 87.3898 134.805 89.1838 135.426 90.3588V90.7155H128.93V90.6211V90.6316ZM123.676 86.1309C124.65 86.1309 125.459 85.9526 126.256 85.5015C127.054 85.0504 127.676 84.5153 128.039 83.7914V79.6475H125.635C122.433 79.6475 120.744 80.7281 120.568 82.9836V83.3403C120.568 84.1481 120.837 84.7776 121.366 85.3231C121.987 85.9526 122.702 86.1309 123.676 86.1309Z" fill="#999999"/>
<path d="M152.772 72.5241C151.881 72.4297 151.166 72.3458 150.461 72.3458C148.057 72.3458 146.462 73.1536 145.747 74.8636V90.7155H139.343V66.4813H145.394L145.57 69.3663C146.814 67.1108 148.596 66.0302 150.907 66.0302C151.622 66.0302 152.243 66.1246 152.865 66.303L152.772 72.5241Z" fill="#999999"/>
<path d="M168.791 83.9593C168.791 83.1515 168.439 82.522 167.63 82.0709C166.833 81.6198 165.579 81.1687 163.89 80.812C158.191 79.637 155.352 77.1192 155.352 73.5103C155.352 71.3491 156.243 69.5447 158.025 68.1074C159.807 66.6702 162.118 65.9463 164.968 65.9463C167.993 65.9463 170.397 66.6702 172.262 68.1074C174.044 69.5447 175.018 71.4436 175.018 73.7831H168.615C168.615 72.8808 168.345 72.073 167.724 71.5275C167.102 70.898 166.211 70.6253 164.968 70.6253C163.9 70.6253 163.102 70.898 162.481 71.3491C161.859 71.8003 161.59 72.4297 161.59 73.2375C161.59 73.9614 161.942 74.4964 162.574 74.9475C163.196 75.3987 164.356 75.7554 165.952 76.1225C167.558 76.4792 168.884 76.8464 169.951 77.2031C173.329 78.462 175.018 80.6232 175.018 83.6865C175.018 85.8477 174.044 87.6521 172.169 89.0055C170.304 90.3588 167.9 91.0827 164.957 91.0827C162.999 91.0827 161.217 90.726 159.621 90.0021C158.108 89.2782 156.865 88.2921 155.974 87.0332C155.083 85.7742 154.637 84.4209 154.637 82.9836H160.688C160.781 84.1586 161.134 84.9664 161.932 85.5959C162.729 86.2253 163.797 86.4981 165.05 86.4981C166.304 86.4981 167.185 86.2254 167.807 85.7742C168.428 85.3231 168.781 84.7881 168.781 83.9698L168.791 83.9593Z" fill="#999999"/>
<path d="M185.338 69.0936C187.027 67.0163 189.162 66.0302 191.742 66.0302C196.902 66.0302 199.575 69.0936 199.658 75.1259V90.621H193.255V75.3042C193.255 73.9509 192.985 72.8703 192.364 72.2409C191.742 71.6114 190.758 71.2547 189.431 71.2547C187.566 71.2547 186.23 71.9786 185.338 73.4158V90.621H178.935V56.3051H185.338V69.0936Z" fill="#999999"/>
<path d="M204.29 60.1762C204.29 59.1901 204.642 58.3718 205.274 57.7423C205.906 57.1129 206.787 56.8401 207.854 56.8401C208.921 56.8401 209.813 57.1129 210.434 57.7423C211.056 58.3718 211.419 59.1796 211.419 60.1762C211.419 61.1729 211.066 61.9807 210.434 62.6101C209.802 63.2396 208.921 63.5124 207.854 63.5124C206.787 63.5124 205.896 63.2396 205.274 62.6101C204.652 61.9807 204.29 61.1729 204.29 60.1762ZM211.139 90.621H204.735V66.4813H211.139V90.621Z" fill="#999999"/>
<path d="M237.841 78.8292C237.841 82.522 237.043 85.491 235.354 87.7466C233.665 90.0021 231.437 91.0827 228.588 91.0827C226.184 91.0827 224.226 90.2749 222.713 88.5648V100.011H216.309V66.5023H222.184L222.361 68.8418C223.873 66.9534 225.915 66.0512 228.412 66.0512C231.344 66.0512 233.665 67.1318 235.261 69.3873C236.867 71.5485 237.748 74.6118 237.748 78.483V78.8397H237.83L237.841 78.8292ZM231.52 78.2837C231.52 76.0281 231.168 74.3181 230.36 73.0592C229.562 71.8003 228.401 71.2547 226.889 71.2547C224.93 71.2547 223.511 72.0625 222.796 73.5942V83.5082C223.594 85.1343 224.93 85.9421 226.982 85.9421C229.914 85.8477 231.52 83.3299 231.52 78.2837Z" fill="#999999"/>
</g>
<defs>
<clipPath id="clip0_8_403">
<rect width="239.706" height="100" fill="white"/>
</clipPath>
</defs>
</svg>
