<svg width="282" height="82" viewBox="0 0 282 82" fill="none" xmlns="http://www.w3.org/2000/svg">
<g clip-path="url(#clip0_8_586)">
<path d="M4.74147 14.9215C7.36011 14.9215 9.48294 12.787 9.48294 10.1539C9.48294 7.52077 7.36011 5.38623 4.74147 5.38623C2.12283 5.38623 0 7.52077 0 10.1539C0 12.787 2.12283 14.9215 4.74147 14.9215Z" fill="#6D6E71"/>
<path d="M4.74147 28.3361C7.36011 28.3361 9.48294 26.2015 9.48294 23.5684C9.48294 20.9353 7.36011 18.8008 4.74147 18.8008C2.12283 18.8008 0 20.9353 0 23.5684C0 26.2015 2.12283 28.3361 4.74147 28.3361Z" fill="#6D6E71"/>
<path d="M4.74147 41.7506C7.36011 41.7506 9.48294 39.6161 9.48294 36.983C9.48294 34.3499 7.36011 32.2153 4.74147 32.2153C2.12283 32.2153 0 34.3499 0 36.983C0 39.6161 2.12283 41.7506 4.74147 41.7506Z" fill="#6D6E71"/>
<path d="M4.74147 55.171C7.36011 55.171 9.48294 53.0365 9.48294 50.4034C9.48294 47.7703 7.36011 45.6357 4.74147 45.6357C2.12283 45.6357 0 47.7703 0 50.4034C0 53.0365 2.12283 55.171 4.74147 55.171Z" fill="#6D6E71"/>
<path d="M4.74147 68.5856C7.36011 68.5856 9.48294 66.451 9.48294 63.8179C9.48294 61.1848 7.36011 59.0503 4.74147 59.0503C2.12283 59.0503 0 61.1848 0 63.8179C0 66.451 2.12283 68.5856 4.74147 68.5856Z" fill="#6D6E71"/>
<path d="M4.74147 82.0001C7.36011 82.0001 9.48294 79.8656 9.48294 77.2325C9.48294 74.5994 7.36011 72.4648 4.74147 72.4648C2.12283 72.4648 0 74.5994 0 77.2325C0 79.8656 2.12283 82.0001 4.74147 82.0001Z" fill="#6D6E71"/>
<path d="M19.9443 14.9215C22.563 14.9215 24.6858 12.787 24.6858 10.1539C24.6858 7.52077 22.563 5.38623 19.9443 5.38623C17.3257 5.38623 15.2029 7.52077 15.2029 10.1539C15.2029 12.787 17.3257 14.9215 19.9443 14.9215Z" fill="#6D6E71"/>
<path d="M19.9443 28.3361C22.563 28.3361 24.6858 26.2015 24.6858 23.5684C24.6858 20.9353 22.563 18.8008 19.9443 18.8008C17.3257 18.8008 15.2029 20.9353 15.2029 23.5684C15.2029 26.2015 17.3257 28.3361 19.9443 28.3361Z" fill="#6D6E71"/>
<path d="M19.9443 41.7506C22.563 41.7506 24.6858 39.6161 24.6858 36.983C24.6858 34.3499 22.563 32.2153 19.9443 32.2153C17.3257 32.2153 15.2029 34.3499 15.2029 36.983C15.2029 39.6161 17.3257 41.7506 19.9443 41.7506Z" fill="#6D6E71"/>
<path d="M19.9443 55.171C22.563 55.171 24.6858 53.0365 24.6858 50.4034C24.6858 47.7703 22.563 45.6357 19.9443 45.6357C17.3257 45.6357 15.2029 47.7703 15.2029 50.4034C15.2029 53.0365 17.3257 55.171 19.9443 55.171Z" fill="#6D6E71"/>
<path d="M19.9443 68.5856C22.563 68.5856 24.6858 66.451 24.6858 63.8179C24.6858 61.1848 22.563 59.0503 19.9443 59.0503C17.3257 59.0503 15.2029 61.1848 15.2029 63.8179C15.2029 66.451 17.3257 68.5856 19.9443 68.5856Z" fill="#6D6E71"/>
<path d="M19.9443 82.0001C22.563 82.0001 24.6858 79.8656 24.6858 77.2325C24.6858 74.5994 22.563 72.4648 19.9443 72.4648C17.3257 72.4648 15.2029 74.5994 15.2029 77.2325C15.2029 79.8656 17.3257 82.0001 19.9443 82.0001Z" fill="#6D6E71"/>
<path d="M61.2085 14.9215C63.8272 14.9215 65.95 12.787 65.95 10.1539C65.95 7.52077 63.8272 5.38623 61.2085 5.38623C58.5899 5.38623 56.467 7.52077 56.467 10.1539C56.467 12.787 58.5899 14.9215 61.2085 14.9215Z" fill="#6D6E71"/>
<path d="M61.2085 28.3361C63.8272 28.3361 65.95 26.2015 65.95 23.5684C65.95 20.9353 63.8272 18.8008 61.2085 18.8008C58.5899 18.8008 56.467 20.9353 56.467 23.5684C56.467 26.2015 58.5899 28.3361 61.2085 28.3361Z" fill="#6D6E71"/>
<path d="M61.2085 41.7506C63.8272 41.7506 65.95 39.6161 65.95 36.983C65.95 34.3499 63.8272 32.2153 61.2085 32.2153C58.5899 32.2153 56.467 34.3499 56.467 36.983C56.467 39.6161 58.5899 41.7506 61.2085 41.7506Z" fill="#6D6E71"/>
<path d="M61.2085 55.171C63.8272 55.171 65.95 53.0365 65.95 50.4034C65.95 47.7703 63.8272 45.6357 61.2085 45.6357C58.5899 45.6357 56.467 47.7703 56.467 50.4034C56.467 53.0365 58.5899 55.171 61.2085 55.171Z" fill="#6D6E71"/>
<path d="M61.2085 68.5856C63.8272 68.5856 65.95 66.451 65.95 63.8179C65.95 61.1848 63.8272 59.0503 61.2085 59.0503C58.5899 59.0503 56.467 61.1848 56.467 63.8179C56.467 66.451 58.5899 68.5856 61.2085 68.5856Z" fill="#6D6E71"/>
<path d="M61.2085 82.0001C63.8272 82.0001 65.95 79.8656 65.95 77.2325C65.95 74.5994 63.8272 72.4648 61.2085 72.4648C58.5899 72.4648 56.467 74.5994 56.467 77.2325C56.467 79.8656 58.5899 82.0001 61.2085 82.0001Z" fill="#6D6E71"/>
<path d="M76.4059 14.9215C79.0245 14.9215 81.1474 12.787 81.1474 10.1539C81.1474 7.52077 79.0245 5.38623 76.4059 5.38623C73.7873 5.38623 71.6644 7.52077 71.6644 10.1539C71.6644 12.787 73.7873 14.9215 76.4059 14.9215Z" fill="#6D6E71"/>
<path d="M76.4059 28.3361C79.0245 28.3361 81.1474 26.2015 81.1474 23.5684C81.1474 20.9353 79.0245 18.8008 76.4059 18.8008C73.7873 18.8008 71.6644 20.9353 71.6644 23.5684C71.6644 26.2015 73.7873 28.3361 76.4059 28.3361Z" fill="#6D6E71"/>
<path d="M76.4059 41.7506C79.0245 41.7506 81.1474 39.6161 81.1474 36.983C81.1474 34.3499 79.0245 32.2153 76.4059 32.2153C73.7873 32.2153 71.6644 34.3499 71.6644 36.983C71.6644 39.6161 73.7873 41.7506 76.4059 41.7506Z" fill="#6D6E71"/>
<path d="M76.4059 55.171C79.0245 55.171 81.1474 53.0365 81.1474 50.4034C81.1474 47.7703 79.0245 45.6357 76.4059 45.6357C73.7873 45.6357 71.6644 47.7703 71.6644 50.4034C71.6644 53.0365 73.7873 55.171 76.4059 55.171Z" fill="#6D6E71"/>
<path d="M76.4059 68.5856C79.0245 68.5856 81.1474 66.451 81.1474 63.8179C81.1474 61.1848 79.0245 59.0503 76.4059 59.0503C73.7873 59.0503 71.6644 61.1848 71.6644 63.8179C71.6644 66.451 73.7873 68.5856 76.4059 68.5856Z" fill="#6D6E71"/>
<path d="M76.4059 82.0001C79.0245 82.0001 81.1474 79.8656 81.1474 77.2325C81.1474 74.5994 79.0245 72.4648 76.4059 72.4648C73.7873 72.4648 71.6644 74.5994 71.6644 77.2325C71.6644 79.8656 73.7873 82.0001 76.4059 82.0001Z" fill="#6D6E71"/>
<path d="M42.7627 0.224715C48.3317 1.39414 51.7424 6.62842 50.5738 12.2338C49.4108 17.8391 44.2052 21.263 38.6306 20.088C33.0617 18.9186 29.6789 13.555 30.8195 8.07895C31.9602 2.60291 37.1937 -0.950328 42.7627 0.224715Z" fill="#BE1E2D"/>
<path d="M50.7303 23.377H30.4281V81.7974H50.7303V23.377Z" fill="#BE1E2D"/>
<path d="M102.73 65.0607V67.6975C102.081 67.9337 101.45 68.1023 100.835 68.2148C100.22 68.3272 99.6156 68.3834 99.0118 68.3834C96.915 68.3834 95.1873 67.7481 93.8398 66.4831C92.4923 65.2181 91.8213 63.6046 91.8213 61.6424C91.8213 59.6802 92.4923 58.1285 93.8398 56.8354C95.1873 55.5479 96.8703 54.9014 98.8999 54.9014C99.5206 54.9014 100.136 54.9688 100.739 55.0981C101.343 55.2275 101.936 55.4299 102.523 55.6997V58.4602C101.93 58.0948 101.343 57.8249 100.762 57.6563C100.18 57.482 99.5877 57.3976 98.9838 57.3976C97.6643 57.3976 96.5907 57.7968 95.7576 58.5895C94.9245 59.3823 94.5107 60.3999 94.5107 61.6424C94.5107 62.8849 94.9357 63.9475 95.78 64.7459C96.6243 65.5442 97.7369 65.9434 99.1124 65.9434C99.7442 65.9434 100.359 65.8703 100.958 65.7241C101.556 65.578 102.149 65.3587 102.736 65.0607H102.73Z" fill="white"/>
<path d="M104.374 61.6365C104.374 59.7587 105.039 58.1676 106.364 56.8577C107.695 55.5477 109.317 54.8955 111.229 54.8955C112.129 54.8955 112.99 55.0642 113.812 55.4071C114.634 55.7501 115.372 56.2392 116.021 56.8689C116.68 57.5436 117.184 58.2801 117.525 59.0841C117.866 59.888 118.039 60.737 118.039 61.6365C118.039 62.5361 117.86 63.3907 117.508 64.2284C117.156 65.0717 116.658 65.8026 116.015 66.4267C115.366 67.0732 114.634 67.5567 113.818 67.8828C113.007 68.2089 112.14 68.372 111.218 68.372C109.305 68.372 107.684 67.7198 106.353 66.4098C105.022 65.0998 104.363 63.5087 104.363 61.6309L104.374 61.6365ZM107.063 61.6365C107.063 62.8397 107.466 63.8686 108.277 64.7175C109.087 65.5665 110.06 65.9938 111.201 65.9938C112.342 65.9938 113.309 65.5665 114.12 64.7119C114.93 63.8573 115.339 62.8341 115.339 61.6365C115.339 60.439 114.936 59.4326 114.125 58.5837C113.314 57.7347 112.342 57.3074 111.201 57.3074C110.06 57.3074 109.082 57.7347 108.277 58.5837C107.466 59.4326 107.063 60.4503 107.063 61.6365Z" fill="white"/>
<path d="M120.566 68.1247V48.52H123.133V68.1247H120.566Z" fill="white"/>
<path d="M126.588 68.1247V48.52H129.155V68.1247H126.588Z" fill="white"/>
<path d="M143.826 66.753C142.971 67.3039 142.093 67.72 141.187 67.9955C140.282 68.271 139.348 68.4059 138.381 68.4059C136.345 68.4059 134.724 67.7762 133.51 66.5056C132.297 65.2406 131.693 63.5539 131.693 61.44C131.693 59.5059 132.275 57.9373 133.443 56.7342C134.612 55.531 136.133 54.9238 138.006 54.9238C139.879 54.9238 141.338 55.5366 142.423 56.7623C143.508 57.9879 144.056 59.6409 144.056 61.7211V62.0978H134.411C134.483 63.3234 134.886 64.2792 135.607 64.9651C136.334 65.651 137.301 65.994 138.52 65.994C139.337 65.994 140.192 65.8422 141.076 65.5386C141.965 65.235 142.882 64.7739 143.826 64.1555V66.7473V66.753ZM134.405 60.2649H141.221C141.137 59.3204 140.796 58.567 140.203 57.9936C139.611 57.4257 138.867 57.139 137.972 57.139C136.988 57.139 136.194 57.4032 135.59 57.9317C134.987 58.4602 134.59 59.2361 134.405 60.2649Z" fill="white"/>
<path d="M148.73 63.9921C147.763 63.6942 147.025 63.1994 146.522 62.5079C146.013 61.8163 145.761 60.9618 145.761 59.9441C145.761 58.3755 146.298 57.1893 147.377 56.3853C148.456 55.5813 150.055 55.1821 152.169 55.1821H157.285V57.2848H155.11C155.462 57.6671 155.725 58.0719 155.893 58.4992C156.06 58.9265 156.144 59.3988 156.144 59.9217C156.144 61.0067 155.814 61.9288 155.16 62.6934C154.506 63.458 153.623 63.9415 152.521 64.1383C152.281 64.1833 151.956 64.2395 151.548 64.307C150.162 64.5206 149.474 64.8748 149.474 65.3696C149.474 65.8643 150.463 66.3085 152.443 66.702C152.924 66.7976 153.309 66.8707 153.583 66.9269C154.83 67.1856 155.77 67.6297 156.413 68.2425C157.056 68.861 157.374 69.6425 157.374 70.5982C157.374 71.9138 156.826 72.9202 155.736 73.6117C154.646 74.3033 153.058 74.6462 150.978 74.6462C148.898 74.6462 147.388 74.3145 146.315 73.6455C145.241 72.9764 144.704 72.0094 144.704 70.7388C144.704 69.8336 145.017 69.0859 145.644 68.4955C146.27 67.9052 147.193 67.5004 148.411 67.2755C147.919 67.0506 147.562 66.8089 147.332 66.5559C147.103 66.2972 146.991 66.0105 146.991 65.6957C146.991 65.3583 147.131 65.0547 147.411 64.7849C147.69 64.515 148.132 64.2508 148.736 63.9978L148.73 63.9921ZM147.209 70.5364C147.209 71.1717 147.522 71.6496 148.16 71.9757C148.792 72.2962 149.72 72.4592 150.944 72.4592C152.169 72.4592 153.08 72.3018 153.757 71.9813C154.433 71.6665 154.774 71.2279 154.774 70.6769C154.774 70.0698 154.389 69.6087 153.623 69.3051C152.857 68.9959 151.705 68.8441 150.173 68.8441C149.3 68.8441 148.585 69.0072 148.031 69.3276C147.478 69.6481 147.204 70.0529 147.204 70.542L147.209 70.5364ZM150.972 57.3635C150.184 57.3635 149.541 57.5941 149.043 58.0551C148.546 58.5161 148.3 59.1064 148.3 59.8261C148.3 60.5851 148.534 61.1754 149.01 61.5971C149.485 62.0244 150.139 62.2324 150.972 62.2324C151.805 62.2324 152.488 62.0187 152.98 61.5858C153.472 61.1585 153.718 60.5682 153.718 59.8205C153.718 59.0727 153.46 58.5105 152.946 58.0495C152.432 57.5884 151.772 57.3579 150.972 57.3579V57.3635Z" fill="white"/>
<path d="M170.497 66.753C169.642 67.3039 168.764 67.72 167.858 67.9955C166.952 68.271 166.019 68.4059 165.051 68.4059C163.016 68.4059 161.395 67.7762 160.181 66.5056C158.968 65.2406 158.364 63.5539 158.364 61.44C158.364 59.5059 158.946 57.9373 160.114 56.7342C161.283 55.531 162.804 54.9238 164.677 54.9238C166.55 54.9238 168.009 55.5366 169.094 56.7623C170.179 57.9879 170.726 59.6409 170.726 61.7211V62.0978H161.081C161.154 63.3234 161.557 64.2792 162.278 64.9651C163.005 65.651 163.972 65.994 165.191 65.994C166.007 65.994 166.863 65.8422 167.746 65.5386C168.635 65.235 169.552 64.7739 170.497 64.1555V66.7473V66.753ZM161.076 60.2649H167.892C167.808 59.3204 167.467 58.567 166.874 57.9936C166.281 57.4257 165.538 57.139 164.643 57.139C163.659 57.139 162.865 57.4032 162.261 57.9317C161.657 58.4602 161.26 59.2361 161.076 60.2649Z" fill="white"/>
<path d="M187.557 74.6407V55.1766H190.151V55.9075C190.632 55.5646 191.146 55.3059 191.683 55.1429C192.22 54.9798 192.818 54.8955 193.467 54.8955C195.323 54.8955 196.838 55.5196 198.007 56.7733C199.175 58.0271 199.762 59.6463 199.762 61.6365C199.762 63.6268 199.175 65.246 198.007 66.4998C196.838 67.7535 195.323 68.3776 193.467 68.3776C192.796 68.3776 192.197 68.2989 191.661 68.1471C191.124 67.9953 190.621 67.7479 190.151 67.4106V74.6407H187.557ZM190.151 58.0215V65.2797C190.57 65.589 190.995 65.8138 191.426 65.96C191.856 66.1062 192.32 66.1793 192.812 66.1793C194.121 66.1793 195.155 65.7745 195.904 64.9649C196.659 64.1553 197.034 63.0477 197.034 61.6365C197.034 60.2254 196.659 59.1347 195.904 58.3363C195.15 57.538 194.121 57.1388 192.812 57.1388C192.32 57.1388 191.856 57.2062 191.426 57.3468C190.995 57.4873 190.57 57.7122 190.151 58.0215Z" fill="white"/>
<path d="M201.417 61.6365C201.417 59.7587 202.083 58.1676 203.408 56.8577C204.739 55.5477 206.36 54.8955 208.272 54.8955C209.173 54.8955 210.034 55.0642 210.856 55.4071C211.678 55.7501 212.416 56.2392 213.064 56.8689C213.724 57.5436 214.227 58.2801 214.568 59.0841C214.909 59.888 215.083 60.737 215.083 61.6365C215.083 62.5361 214.904 63.3907 214.552 64.2284C214.199 65.0717 213.702 65.8026 213.059 66.4267C212.41 67.0732 211.678 67.5567 210.861 67.8828C210.05 68.2089 209.184 68.372 208.261 68.372C206.349 68.372 204.728 67.7198 203.397 66.4098C202.066 65.0998 201.406 63.5087 201.406 61.6309L201.417 61.6365ZM204.107 61.6365C204.107 62.8397 204.509 63.8686 205.32 64.7175C206.131 65.5665 207.104 65.9938 208.244 65.9938C209.385 65.9938 210.352 65.5665 211.163 64.7119C211.974 63.8573 212.382 62.8341 212.382 61.6365C212.382 60.439 211.98 59.4326 211.169 58.5837C210.358 57.7347 209.385 57.3074 208.244 57.3074C207.104 57.3074 206.125 57.7347 205.32 58.5837C204.509 59.4326 204.107 60.4503 204.107 61.6365Z" fill="white"/>
<path d="M217.61 68.1247V48.52H220.176V68.1247H217.61ZM228.966 55.1767L223.57 61.0913L230.051 68.1247H226.539L220.255 61.2318L225.801 55.1767H228.966Z" fill="white"/>
<path d="M231.365 68.1247V48.52H233.931V56.7566C234.574 56.1381 235.212 55.6883 235.849 55.4016C236.486 55.1149 237.169 54.9743 237.907 54.9743C239.31 54.9743 240.417 55.3791 241.222 56.1943C242.033 57.0096 242.436 58.1228 242.436 59.5452V68.1191H239.841V60.203C239.841 59.146 239.623 58.3701 239.193 57.8754C238.762 57.3806 238.086 57.1333 237.163 57.1333C236.486 57.1333 235.888 57.2626 235.379 57.5268C234.871 57.7854 234.384 58.2071 233.931 58.7862V68.1191H231.365V68.1247Z" fill="white"/>
<path d="M252.03 67.062C251.382 67.5174 250.767 67.8491 250.185 68.0515C249.604 68.2539 248.978 68.3494 248.312 68.3494C247.16 68.3494 246.26 68.0739 245.612 67.5173C244.963 66.9608 244.639 66.1961 244.639 65.2291C244.639 64.3127 244.991 63.5087 245.701 62.8172C246.406 62.1256 247.468 61.5409 248.894 61.063L251.947 60.0398C251.958 59.9667 251.963 59.888 251.969 59.8149C251.969 59.7418 251.975 59.635 251.975 59.4945C251.975 58.7186 251.784 58.162 251.41 57.819C251.035 57.4761 250.415 57.3074 249.548 57.3074C248.832 57.3074 248.094 57.4592 247.334 57.7628C246.573 58.0664 245.807 58.5162 245.047 59.1121V56.5597C245.707 56.0199 246.445 55.6095 247.261 55.334C248.077 55.0585 248.95 54.918 249.867 54.918C251.522 54.918 252.724 55.2834 253.479 56.0199C254.233 56.7508 254.608 57.9371 254.608 59.5732V65.0492C254.608 65.5046 254.647 65.8307 254.725 66.0218C254.804 66.213 254.938 66.3086 255.122 66.3086C255.279 66.3086 255.447 66.2692 255.62 66.1849C255.793 66.1006 256.073 65.9038 256.464 65.5946V67.1632C256 67.5623 255.531 67.8603 255.055 68.0515C254.58 68.2426 254.088 68.3382 253.579 68.3382C253.07 68.3382 252.718 68.237 252.472 68.029C252.226 67.821 252.086 67.4949 252.047 67.0507L252.03 67.062ZM251.935 65.4934V61.6984C250.208 62.2381 249.017 62.7385 248.363 63.1995C247.708 63.6549 247.378 64.189 247.378 64.7962C247.378 65.3303 247.546 65.7407 247.887 66.0275C248.228 66.3198 248.704 66.4604 249.319 66.4604C249.772 66.4604 250.219 66.3817 250.655 66.213C251.091 66.05 251.522 65.8082 251.935 65.4934Z" fill="white"/>
<path d="M257.996 68.1245V55.1765H260.563V57.9933C261.278 56.8632 261.921 56.0761 262.492 55.6263C263.062 55.1766 263.683 54.9517 264.354 54.9517C264.818 54.9517 265.287 55.0529 265.768 55.2609C266.249 55.4689 266.758 55.7837 267.295 56.2167L265.903 58.5161C265.483 58.1507 265.086 57.8865 264.706 57.7234C264.326 57.5604 263.923 57.476 263.509 57.476C262.81 57.476 262.207 57.7684 261.687 58.3587C261.167 58.9491 260.792 59.7643 260.574 60.81V68.1245H258.008H257.996Z" fill="white"/>
<path d="M275.095 67.062C274.446 67.5174 273.831 67.8491 273.25 68.0515C272.668 68.2539 272.042 68.3494 271.377 68.3494C270.225 68.3494 269.324 68.0739 268.676 67.5173C268.027 66.9608 267.703 66.1961 267.703 65.2291C267.703 64.3127 268.055 63.5087 268.765 62.8172C269.47 62.1256 270.532 61.5409 271.958 61.063L275.011 60.0398C275.022 59.9667 275.028 59.888 275.033 59.8149C275.033 59.7418 275.039 59.635 275.039 59.4945C275.039 58.7186 274.849 58.162 274.474 57.819C274.1 57.4761 273.479 57.3074 272.612 57.3074C271.897 57.3074 271.158 57.4592 270.398 57.7628C269.638 58.0664 268.872 58.5162 268.111 59.1121V56.5597C268.771 56.0199 269.509 55.6095 270.325 55.334C271.142 55.0585 272.014 54.918 272.931 54.918C274.586 54.918 275.788 55.2834 276.543 56.0199C277.298 56.7508 277.672 57.9371 277.672 59.5732V65.0492C277.672 65.5046 277.712 65.8307 277.79 66.0218C277.868 66.213 278.002 66.3086 278.187 66.3086C278.343 66.3086 278.511 66.2692 278.684 66.1849C278.858 66.1006 279.137 65.9038 279.529 65.5946V67.1632C279.065 67.5623 278.595 67.8603 278.12 68.0515C277.644 68.2426 277.152 68.3382 276.644 68.3382C276.135 68.3382 275.783 68.237 275.536 68.029C275.29 67.821 275.151 67.4949 275.112 67.0507L275.095 67.062ZM275 65.4934V61.6984C273.272 62.2381 272.081 62.7385 271.427 63.1995C270.773 63.6549 270.443 64.189 270.443 64.7962C270.443 65.3303 270.611 65.7407 270.952 66.0275C271.293 66.3198 271.768 66.4604 272.383 66.4604C272.836 66.4604 273.283 66.3817 273.719 66.213C274.155 66.05 274.586 65.8082 275 65.4934Z" fill="white"/>
<path d="M92.6488 17.1084C92.6488 16.4506 92.8725 15.894 93.3198 15.4442C93.7671 14.9944 94.3206 14.7695 94.9748 14.7695C95.629 14.7695 96.1825 14.9944 96.6354 15.4442C97.0828 15.894 97.3064 16.4506 97.3064 17.1084C97.3064 17.7662 97.0828 18.3228 96.6354 18.7725C96.1881 19.2223 95.6346 19.4472 94.9748 19.4472C94.315 19.4472 93.7671 19.2223 93.3198 18.7725C92.8725 18.3228 92.6488 17.7662 92.6488 17.1084ZM92.9172 44.05V23.2366H97.038V44.05H92.9172Z" fill="white"/>
<path d="M101.315 44.0502V23.2367H105.436V25.7836C106.465 24.7941 107.494 24.0688 108.517 23.6078C109.54 23.1468 110.642 22.9219 111.822 22.9219C114.064 22.9219 115.831 23.5741 117.122 24.884C118.414 26.1884 119.062 27.9875 119.062 30.2701V44.0558H114.942V31.3271C114.942 29.646 114.584 28.4035 113.879 27.5996C113.169 26.7956 112.068 26.3964 110.575 26.3964C109.512 26.3964 108.584 26.6044 107.785 27.0148C106.985 27.4253 106.208 28.1056 105.442 29.0557V44.0558H101.321L101.315 44.0502Z" fill="white"/>
<path d="M128.282 44.0503H124.027V26.8407H121.316V23.2368H124.027V21.3421C124.027 19.543 124.1 18.2331 124.251 17.4235C124.402 16.6139 124.659 15.9055 125.034 15.3039C125.632 14.3256 126.454 13.5666 127.511 13.0269C128.562 12.4872 129.742 12.2173 131.039 12.2173C131.442 12.2173 131.9 12.2566 132.415 12.3297C132.929 12.4028 133.578 12.5321 134.355 12.712V16.3609C133.773 16.2428 133.27 16.1528 132.845 16.091C132.42 16.0291 132.051 16.001 131.738 16.001C130.485 16.001 129.596 16.3496 129.071 17.0468C128.551 17.7439 128.288 18.9639 128.288 20.7068V23.2312H131.045V26.835H128.288V44.0446L128.282 44.0503Z" fill="white"/>
<path d="M132.694 33.6211C132.694 30.602 133.762 28.0439 135.898 25.9412C138.034 23.8385 140.639 22.7871 143.715 22.7871C145.163 22.7871 146.549 23.0626 147.869 23.608C149.189 24.1533 150.374 24.9404 151.42 25.9637C152.482 27.0431 153.287 28.2294 153.841 29.5225C154.394 30.8156 154.668 32.1818 154.668 33.6211C154.668 35.0604 154.383 36.4378 153.818 37.7872C153.248 39.1365 152.448 40.3172 151.42 41.3235C150.374 42.358 149.2 43.1395 147.891 43.668C146.583 44.1909 145.191 44.4551 143.715 44.4551C140.639 44.4551 138.028 43.4038 135.898 41.3011C133.762 39.1984 132.694 36.6402 132.694 33.6211ZM137.016 33.6211C137.016 35.5608 137.665 37.2081 138.968 38.5743C140.265 39.9405 141.836 40.6264 143.67 40.6264C145.504 40.6264 147.058 39.9405 148.361 38.563C149.669 37.1912 150.324 35.5439 150.324 33.6211C150.324 31.6983 149.675 30.0791 148.372 28.7073C147.075 27.3411 145.504 26.6552 143.67 26.6552C141.836 26.6552 140.265 27.3411 138.968 28.7073C137.67 30.0735 137.016 31.7096 137.016 33.6211Z" fill="white"/>
<path d="M157.486 44.0502V23.2368H161.607V27.7627C162.759 25.9467 163.793 24.6761 164.71 23.9564C165.627 23.2368 166.622 22.877 167.702 22.877C168.445 22.877 169.206 23.04 169.977 23.3717C170.743 23.7034 171.565 24.215 172.432 24.9066L170.19 28.6004C169.519 28.0157 168.876 27.5884 168.261 27.3297C167.646 27.0655 167.003 26.9362 166.332 26.9362C165.213 26.9362 164.235 27.4085 163.396 28.3586C162.558 29.3031 161.965 30.6187 161.601 32.2998V44.0615H157.481L157.486 44.0502Z" fill="white"/>
<path d="M173.505 44.0502V23.2367H177.626V25.7836C178.655 24.7941 179.684 24.0688 180.707 23.6078C181.73 23.1468 182.832 22.9219 184.012 22.9219C185.532 22.9219 186.807 23.203 187.83 23.7652C188.854 24.3274 189.715 25.2157 190.419 26.4358C191.688 25.1764 192.879 24.2712 193.992 23.7315C195.105 23.1917 196.29 22.9219 197.543 22.9219C199.796 22.9219 201.58 23.5741 202.888 24.884C204.196 26.1884 204.851 27.9875 204.851 30.2701V44.0558H200.663V31.3271C200.663 29.6292 200.316 28.3867 199.623 27.5883C198.929 26.7956 197.845 26.3964 196.363 26.3964C195.273 26.3964 194.322 26.6044 193.517 27.0148C192.712 27.4253 191.923 28.1056 191.163 29.0557V44.0558H187.132V31.3271C187.132 29.646 186.774 28.4035 186.069 27.5996C185.359 26.7956 184.258 26.3964 182.765 26.3964C181.702 26.3964 180.774 26.6044 179.975 27.0148C179.175 27.4253 178.398 28.1056 177.632 29.0557V44.0558H173.511L173.505 44.0502Z" fill="white"/>
<path d="M238.935 43.398C238.292 43.7578 237.605 44.022 236.861 44.1963C236.123 44.3706 235.329 44.455 234.474 44.455C232.142 44.455 230.504 43.8984 229.553 42.7908C228.603 41.6776 228.133 39.6536 228.133 36.7075V26.8406H224.616V23.2367H228.133V21.2465L231.851 18.396H232.321V23.2367H238.796V26.8406H232.321V36.3927C232.321 38.1187 232.533 39.2375 232.958 39.7379C233.383 40.2439 234.177 40.4913 235.346 40.4913C235.972 40.4913 236.587 40.407 237.185 40.2439C237.784 40.0809 238.365 39.8223 238.93 39.4793V43.398H238.935Z" fill="white"/>
<path d="M240.993 17.1084C240.993 16.4506 241.217 15.894 241.664 15.4442C242.111 14.9944 242.665 14.7695 243.319 14.7695C243.973 14.7695 244.527 14.9944 244.98 15.4442C245.427 15.894 245.651 16.4506 245.651 17.1084C245.651 17.7662 245.427 18.3228 244.98 18.7725C244.532 19.2223 243.979 19.4472 243.319 19.4472C242.659 19.4472 242.111 19.2223 241.664 18.7725C241.217 18.3228 240.993 17.7662 240.993 17.1084ZM241.261 44.05V23.2366H245.382V44.05H241.261Z" fill="white"/>
<path d="M265.852 39.1196V43.3532C264.807 43.7299 263.789 44.0053 262.805 44.1853C261.821 44.3652 260.842 44.4551 259.869 44.4551C256.492 44.4551 253.725 43.4375 251.555 41.4023C249.391 39.367 248.307 36.7752 248.307 33.6211C248.307 30.4671 249.391 27.9652 251.555 25.8962C253.719 23.8216 256.431 22.7871 259.685 22.7871C260.686 22.7871 261.67 22.8939 262.643 23.102C263.616 23.31 264.572 23.6361 265.511 24.069V28.5049C264.555 27.9202 263.61 27.4873 262.676 27.2118C261.743 26.9363 260.792 26.7957 259.819 26.7957C257.7 26.7957 255.967 27.4367 254.636 28.7129C253.3 29.9892 252.629 31.6252 252.629 33.6267C252.629 35.6282 253.311 37.3318 254.669 38.6136C256.028 39.8955 257.812 40.5421 260.026 40.5421C261.044 40.5421 262.033 40.424 262.995 40.1935C263.957 39.963 264.913 39.6031 265.852 39.1253V39.1196Z" fill="white"/>
<path d="M267.351 42.6333V38.1973C268.592 39.0238 269.783 39.6535 270.935 40.092C272.087 40.5249 273.138 40.7442 274.094 40.7442C275.156 40.7442 275.984 40.5474 276.593 40.1483C277.197 39.7491 277.499 39.2037 277.499 38.5178C277.499 37.6464 276.37 36.6456 274.116 35.5212C273.456 35.1895 272.953 34.9252 272.59 34.7341C270.661 33.7446 269.341 32.7832 268.626 31.8611C267.91 30.9391 267.552 29.809 267.552 28.4709C267.552 26.728 268.173 25.345 269.414 24.3273C270.655 23.3041 272.355 22.7925 274.524 22.7925C275.687 22.7925 276.811 22.933 277.885 23.2085C278.958 23.4896 280.015 23.9169 281.044 24.5016V28.5553C279.775 27.8469 278.612 27.3296 277.56 26.9923C276.509 26.6549 275.508 26.4863 274.569 26.4863C273.702 26.4863 273.037 26.6381 272.562 26.9361C272.092 27.2397 271.857 27.6726 271.857 28.2404C271.857 29.2918 273.3 30.5286 276.179 31.9567L276.56 32.1366C278.813 33.2779 280.283 34.2787 280.971 35.1445C281.659 36.0103 282 37.101 282 38.4222C282 40.2551 281.318 41.7169 279.948 42.8132C278.578 43.9095 276.772 44.4549 274.513 44.4549C273.216 44.4549 271.975 44.3031 270.806 44.0051C269.632 43.7071 268.48 43.2461 267.345 42.6333H267.351Z" fill="white"/>
<path d="M178.784 59.0449C180.254 59.0449 181.395 60.1919 181.395 61.6705C181.395 63.1491 180.254 64.2961 178.784 64.2961C177.313 64.2961 176.172 63.1154 176.172 61.6705C176.172 60.2256 177.313 59.0449 178.784 59.0449Z" fill="white"/>
<path d="M224.23 40.5816C223.956 40.7165 223.688 40.784 223.436 40.784C223.14 40.784 222.927 40.6322 222.799 40.323C222.67 40.0137 222.609 39.4909 222.609 38.76V29.95C222.609 27.3188 222.005 25.4185 220.791 24.2378C219.584 23.0571 217.649 22.4668 214.988 22.4668C213.506 22.4668 212.114 22.6861 210.794 23.1302C209.48 23.5744 208.295 24.2322 207.232 25.1036V29.2022C208.457 28.2408 209.681 27.5155 210.906 27.0264C212.13 26.5373 213.316 26.2955 214.468 26.2955C215.86 26.2955 216.855 26.571 217.459 27.1164C218.063 27.6617 218.365 28.5613 218.365 29.8094C218.365 29.9106 218.365 30.0006 218.365 30.0849L218.32 34.3297V39.4515C217.649 39.9631 216.961 40.3511 216.257 40.6097C215.552 40.8739 214.837 41.0032 214.11 41.0032C213.126 41.0032 212.36 40.7671 211.812 40.3061C211.264 39.8394 210.995 39.1816 210.995 38.3214C210.995 37.3432 211.521 36.4886 212.572 35.7521C213.377 35.1899 214.686 34.5883 216.497 33.9474V31.2937L213.411 32.3282C211.124 33.0928 209.413 34.0317 208.278 35.1449C207.143 36.2581 206.573 37.5456 206.573 39.0186C206.573 40.5816 207.093 41.8072 208.144 42.7011C209.189 43.5951 210.638 44.0392 212.488 44.0392C213.567 44.0392 214.568 43.8762 215.502 43.5557C216.436 43.2353 217.425 42.7011 218.471 41.9703C218.533 42.6899 218.756 43.2184 219.153 43.5445C219.55 43.8762 220.143 44.0392 220.937 44.0392C221.731 44.0392 222.547 43.8874 223.308 43.5782C224.068 43.269 224.823 42.7911 225.572 42.1502V39.6258C224.946 40.1206 224.493 40.4354 224.219 40.5703L224.23 40.5816Z" fill="white"/>
</g>
<defs>
<clipPath id="clip0_8_586">
<rect width="282" height="82" fill="white"/>
</clipPath>
</defs>
</svg>
