<svg width="264" height="48" viewBox="0 0 264 48" fill="none" xmlns="http://www.w3.org/2000/svg">
<g clip-path="url(#clip0_8_484)">
<path d="M2.78171 8.73879C4.31801 8.73879 5.56342 7.48964 5.56342 5.94874C5.56342 4.40784 4.31801 3.15869 2.78171 3.15869C1.24541 3.15869 0 4.40784 0 5.94874C0 7.48964 1.24541 8.73879 2.78171 8.73879Z" fill="#6D6E71"/>
<path d="M2.78171 16.5923C4.31801 16.5923 5.56342 15.3432 5.56342 13.8023C5.56342 12.2614 4.31801 11.0122 2.78171 11.0122C1.24541 11.0122 0 12.2614 0 13.8023C0 15.3432 1.24541 16.5923 2.78171 16.5923Z" fill="#6D6E71"/>
<path d="M2.78171 24.4424C4.31801 24.4424 5.56342 23.1933 5.56342 21.6524C5.56342 20.1114 4.31801 18.8623 2.78171 18.8623C1.24541 18.8623 0 20.1114 0 21.6524C0 23.1933 1.24541 24.4424 2.78171 24.4424Z" fill="#6D6E71"/>
<path d="M2.78171 32.293C4.31801 32.293 5.56342 31.0438 5.56342 29.5029C5.56342 27.962 4.31801 26.7129 2.78171 26.7129C1.24541 26.7129 0 27.962 0 29.5029C0 31.0438 1.24541 32.293 2.78171 32.293Z" fill="#6D6E71"/>
<path d="M2.78171 40.1431C4.31801 40.1431 5.56342 38.8939 5.56342 37.353C5.56342 35.8121 4.31801 34.563 2.78171 34.563C1.24541 34.563 0 35.8121 0 37.353C0 38.8939 1.24541 40.1431 2.78171 40.1431Z" fill="#6D6E71"/>
<path d="M2.78171 47.9937C4.31801 47.9937 5.56342 46.7445 5.56342 45.2036C5.56342 43.6627 4.31801 42.4136 2.78171 42.4136C1.24541 42.4136 0 43.6627 0 45.2036C0 46.7445 1.24541 47.9937 2.78171 47.9937Z" fill="#6D6E71"/>
<path d="M11.7009 8.73879C13.2372 8.73879 14.4826 7.48964 14.4826 5.94874C14.4826 4.40784 13.2372 3.15869 11.7009 3.15869C10.1646 3.15869 8.91919 4.40784 8.91919 5.94874C8.91919 7.48964 10.1646 8.73879 11.7009 8.73879Z" fill="#6D6E71"/>
<path d="M11.7009 16.5923C13.2372 16.5923 14.4826 15.3432 14.4826 13.8023C14.4826 12.2614 13.2372 11.0122 11.7009 11.0122C10.1646 11.0122 8.91919 12.2614 8.91919 13.8023C8.91919 15.3432 10.1646 16.5923 11.7009 16.5923Z" fill="#6D6E71"/>
<path d="M11.7009 24.4424C13.2372 24.4424 14.4826 23.1933 14.4826 21.6524C14.4826 20.1114 13.2372 18.8623 11.7009 18.8623C10.1646 18.8623 8.91919 20.1114 8.91919 21.6524C8.91919 23.1933 10.1646 24.4424 11.7009 24.4424Z" fill="#6D6E71"/>
<path d="M11.7009 32.293C13.2372 32.293 14.4826 31.0438 14.4826 29.5029C14.4826 27.962 13.2372 26.7129 11.7009 26.7129C10.1646 26.7129 8.91919 27.962 8.91919 29.5029C8.91919 31.0438 10.1646 32.293 11.7009 32.293Z" fill="#6D6E71"/>
<path d="M11.7009 40.1431C13.2372 40.1431 14.4826 38.8939 14.4826 37.353C14.4826 35.8121 13.2372 34.563 11.7009 34.563C10.1646 34.563 8.91919 35.8121 8.91919 37.353C8.91919 38.8939 10.1646 40.1431 11.7009 40.1431Z" fill="#6D6E71"/>
<path d="M11.7009 47.9937C13.2372 47.9937 14.4826 46.7445 14.4826 45.2036C14.4826 43.6627 13.2372 42.4136 11.7009 42.4136C10.1646 42.4136 8.91919 43.6627 8.91919 45.2036C8.91919 46.7445 10.1646 47.9937 11.7009 47.9937Z" fill="#6D6E71"/>
<path d="M35.9096 8.73879C37.4459 8.73879 38.6913 7.48964 38.6913 5.94874C38.6913 4.40784 37.4459 3.15869 35.9096 3.15869C34.3733 3.15869 33.1279 4.40784 33.1279 5.94874C33.1279 7.48964 34.3733 8.73879 35.9096 8.73879Z" fill="#6D6E71"/>
<path d="M35.9096 16.5923C37.4459 16.5923 38.6913 15.3432 38.6913 13.8023C38.6913 12.2614 37.4459 11.0122 35.9096 11.0122C34.3733 11.0122 33.1279 12.2614 33.1279 13.8023C33.1279 15.3432 34.3733 16.5923 35.9096 16.5923Z" fill="#6D6E71"/>
<path d="M35.9096 24.4424C37.4459 24.4424 38.6913 23.1933 38.6913 21.6524C38.6913 20.1114 37.4459 18.8623 35.9096 18.8623C34.3733 18.8623 33.1279 20.1114 33.1279 21.6524C33.1279 23.1933 34.3733 24.4424 35.9096 24.4424Z" fill="#6D6E71"/>
<path d="M35.9096 32.293C37.4459 32.293 38.6913 31.0438 38.6913 29.5029C38.6913 27.962 37.4459 26.7129 35.9096 26.7129C34.3733 26.7129 33.1279 27.962 33.1279 29.5029C33.1279 31.0438 34.3733 32.293 35.9096 32.293Z" fill="#6D6E71"/>
<path d="M35.9096 40.1431C37.4459 40.1431 38.6913 38.8939 38.6913 37.353C38.6913 35.8121 37.4459 34.563 35.9096 34.563C34.3733 34.563 33.1279 35.8121 33.1279 37.353C33.1279 38.8939 34.3733 40.1431 35.9096 40.1431Z" fill="#6D6E71"/>
<path d="M35.9096 47.9937C37.4459 47.9937 38.6913 46.7445 38.6913 45.2036C38.6913 43.6627 37.4459 42.4136 35.9096 42.4136C34.3733 42.4136 33.1279 43.6627 33.1279 45.2036C33.1279 46.7445 34.3733 47.9937 35.9096 47.9937Z" fill="#6D6E71"/>
<path d="M44.8255 8.73879C46.3618 8.73879 47.6072 7.48964 47.6072 5.94874C47.6072 4.40784 46.3618 3.15869 44.8255 3.15869C43.2892 3.15869 42.0438 4.40784 42.0438 5.94874C42.0438 7.48964 43.2892 8.73879 44.8255 8.73879Z" fill="#6D6E71"/>
<path d="M44.8255 16.5923C46.3618 16.5923 47.6072 15.3432 47.6072 13.8023C47.6072 12.2614 46.3618 11.0122 44.8255 11.0122C43.2892 11.0122 42.0438 12.2614 42.0438 13.8023C42.0438 15.3432 43.2892 16.5923 44.8255 16.5923Z" fill="#6D6E71"/>
<path d="M44.8255 24.4424C46.3618 24.4424 47.6072 23.1933 47.6072 21.6524C47.6072 20.1114 46.3618 18.8623 44.8255 18.8623C43.2892 18.8623 42.0438 20.1114 42.0438 21.6524C42.0438 23.1933 43.2892 24.4424 44.8255 24.4424Z" fill="#6D6E71"/>
<path d="M44.8255 32.293C46.3618 32.293 47.6072 31.0438 47.6072 29.5029C47.6072 27.962 46.3618 26.7129 44.8255 26.7129C43.2892 26.7129 42.0438 27.962 42.0438 29.5029C42.0438 31.0438 43.2892 32.293 44.8255 32.293Z" fill="#6D6E71"/>
<path d="M44.8255 40.1431C46.3618 40.1431 47.6072 38.8939 47.6072 37.353C47.6072 35.8121 46.3618 34.563 44.8255 34.563C43.2892 34.563 42.0438 35.8121 42.0438 37.353C42.0438 38.8939 43.2892 40.1431 44.8255 40.1431Z" fill="#6D6E71"/>
<path d="M44.8255 47.9937C46.3618 47.9937 47.6072 46.7445 47.6072 45.2036C47.6072 43.6627 46.3618 42.4136 44.8255 42.4136C43.2892 42.4136 42.0438 43.6627 42.0438 45.2036C42.0438 46.7445 43.2892 47.9937 44.8255 47.9937Z" fill="#6D6E71"/>
<path d="M25.0879 0.138351C28.3551 0.822702 30.3561 3.88583 29.6705 7.16611C28.9882 10.4464 25.9342 12.4501 22.6637 11.7625C19.3965 11.0781 17.4119 7.9393 18.0811 4.73469C18.7503 1.53008 21.8207 -0.546001 25.0879 0.138351Z" fill="#BE1E2D"/>
<path d="M29.7623 13.687H17.8514V47.875H29.7623V13.687Z" fill="#BE1E2D"/>
<path d="M60.2693 38.0806V39.6236C59.8888 39.7618 59.5181 39.8605 59.1573 39.9263C58.7964 39.9921 58.4421 40.025 58.0879 40.025C56.8578 40.025 55.8441 39.6532 55.0536 38.913C54.263 38.1727 53.8694 37.2284 53.8694 36.0801C53.8694 34.9319 54.263 34.0238 55.0536 33.2671C55.8441 32.5136 56.8315 32.1353 58.0223 32.1353C58.3864 32.1353 58.7472 32.1747 59.1015 32.2504C59.4558 32.3261 59.8035 32.4445 60.1479 32.6025V34.2179C59.8002 34.0041 59.4558 33.8461 59.1146 33.7474C58.7735 33.6454 58.4257 33.5961 58.0715 33.5961C57.2973 33.5961 56.6675 33.8297 56.1787 34.2936C55.69 34.7575 55.4472 35.353 55.4472 36.0801C55.4472 36.8073 55.6965 37.4291 56.1919 37.8963C56.6872 38.3635 57.34 38.5971 58.1469 38.5971C58.5176 38.5971 58.8784 38.5543 59.2294 38.4688C59.5804 38.3832 59.9281 38.2549 60.2726 38.0806H60.2693Z" fill="white"/>
<path d="M61.2337 36.0801C61.2337 34.9812 61.6241 34.0501 62.4015 33.2835C63.1822 32.5169 64.1335 32.1353 65.2554 32.1353C65.7835 32.1353 66.2887 32.234 66.7709 32.4347C67.2531 32.6354 67.6861 32.9216 68.0666 33.2901C68.4537 33.6849 68.7489 34.1159 68.949 34.5864C69.1491 35.0569 69.2508 35.5537 69.2508 36.0801C69.2508 36.6066 69.1459 37.1067 68.9392 37.5969C68.7325 38.0904 68.4406 38.5181 68.0634 38.8834C67.6828 39.2617 67.2531 39.5447 66.7742 39.7355C66.2985 39.9263 65.7901 40.0217 65.2488 40.0217C64.127 40.0217 63.1757 39.6401 62.395 38.8735C61.6143 38.1069 61.2272 37.1758 61.2272 36.0769L61.2337 36.0801ZM62.8116 36.0801C62.8116 36.7842 63.0477 37.3863 63.5234 37.8831C63.999 38.38 64.5698 38.63 65.239 38.63C65.9082 38.63 66.4757 38.38 66.9513 37.8799C67.427 37.3798 67.6664 36.7809 67.6664 36.0801C67.6664 35.3793 67.4303 34.7904 66.9546 34.2936C66.479 33.7968 65.9082 33.5467 65.239 33.5467C64.5698 33.5467 63.9958 33.7968 63.5234 34.2936C63.0477 34.7904 62.8116 35.3859 62.8116 36.0801Z" fill="white"/>
<path d="M70.7335 39.8736V28.4009H72.2392V39.8736H70.7335Z" fill="white"/>
<path d="M74.2664 39.8736V28.4009H75.772V39.8736H74.2664Z" fill="white"/>
<path d="M84.3796 39.0709C83.8778 39.3933 83.3627 39.6368 82.8313 39.798C82.2999 39.9593 81.7521 40.0382 81.1846 40.0382C79.9906 40.0382 79.0393 39.6697 78.3275 38.9261C77.6156 38.1859 77.2614 37.1988 77.2614 35.9617C77.2614 34.8299 77.6025 33.912 78.2881 33.2079C78.9737 32.5038 79.8659 32.1484 80.9648 32.1484C82.0637 32.1484 82.9199 32.5071 83.5563 33.2243C84.1927 33.9416 84.5141 34.9089 84.5141 36.1262V36.3467H78.8556C78.8982 37.0639 79.1344 37.6232 79.5576 38.0246C79.984 38.426 80.5515 38.6267 81.2666 38.6267C81.7455 38.6267 82.2474 38.5379 82.7657 38.3602C83.2873 38.1826 83.8253 37.9128 84.3796 37.5509V39.0676V39.0709ZM78.8523 35.2741H82.851C82.8018 34.7213 82.6017 34.2805 82.254 33.9449C81.9063 33.6126 81.47 33.4448 80.9451 33.4448C80.3678 33.4448 79.902 33.5994 79.5477 33.9087C79.1935 34.2179 78.9606 34.672 78.8523 35.2741Z" fill="white"/>
<path d="M87.2565 37.4555C86.689 37.2811 86.256 36.9916 85.9608 36.5869C85.6622 36.1822 85.5146 35.6821 85.5146 35.0866C85.5146 34.1686 85.8295 33.4744 86.4626 33.0039C87.0957 32.5334 88.0339 32.2998 89.2739 32.2998H92.2754V33.5303H90.9993C91.206 33.7541 91.3602 33.9909 91.4586 34.241C91.557 34.491 91.6062 34.7674 91.6062 35.0734C91.6062 35.7084 91.4126 36.248 91.0289 36.6954C90.6451 37.1429 90.1268 37.4259 89.4805 37.541C89.3395 37.5673 89.1492 37.6002 88.9098 37.6397C88.0963 37.7647 87.6928 37.972 87.6928 38.2616C87.6928 38.5511 88.2734 38.811 89.4346 39.0413C89.7167 39.0973 89.9431 39.14 90.1038 39.1729C90.8353 39.3243 91.3864 39.5842 91.7636 39.9428C92.1409 40.3047 92.3279 40.7621 92.3279 41.3214C92.3279 42.0913 92.0064 42.6802 91.3667 43.0849C90.7271 43.4896 89.7954 43.6903 88.5752 43.6903C87.3549 43.6903 86.4692 43.4962 85.8394 43.1047C85.2096 42.7131 84.8947 42.1472 84.8947 41.4036C84.8947 40.8739 85.0784 40.4363 85.4458 40.0909C85.8131 39.7454 86.3544 39.5085 87.0695 39.3769C86.7808 39.2453 86.5709 39.1038 86.4364 38.9558C86.3019 38.8044 86.2363 38.6366 86.2363 38.4524C86.2363 38.255 86.3183 38.0773 86.4823 37.9194C86.6464 37.7615 86.9055 37.6068 87.2598 37.4588L87.2565 37.4555ZM86.3642 41.2852C86.3642 41.657 86.5479 41.9367 86.9219 42.1275C87.2926 42.315 87.8371 42.4104 88.5555 42.4104C89.2739 42.4104 89.8086 42.3183 90.2055 42.1308C90.6024 41.9465 90.8025 41.6899 90.8025 41.3675C90.8025 41.0121 90.5762 40.7423 90.1268 40.5647C89.6774 40.3837 89.0016 40.2949 88.1028 40.2949C87.5911 40.2949 87.1712 40.3903 86.8464 40.5778C86.5217 40.7654 86.361 41.0023 86.361 41.2885L86.3642 41.2852ZM88.5719 33.5764C88.1094 33.5764 87.7321 33.7113 87.4402 33.9811C87.1482 34.2509 87.0039 34.5963 87.0039 35.0175C87.0039 35.4616 87.1417 35.8071 87.4205 36.0539C87.6993 36.3039 88.0831 36.4257 88.5719 36.4257C89.0607 36.4257 89.4609 36.3006 89.7495 36.0473C90.0382 35.7972 90.1825 35.4518 90.1825 35.0142C90.1825 34.5766 90.0316 34.2476 89.7298 33.9778C89.4281 33.708 89.041 33.5731 88.5719 33.5731V33.5764Z" fill="white"/>
<path d="M100.027 39.0709C99.5248 39.3933 99.0098 39.6368 98.4784 39.798C97.947 39.9593 97.3992 40.0382 96.8317 40.0382C95.6377 40.0382 94.6864 39.6697 93.9746 38.9261C93.2627 38.1859 92.9084 37.1988 92.9084 35.9617C92.9084 34.8299 93.2496 33.912 93.9352 33.2079C94.6208 32.5038 95.513 32.1484 96.6119 32.1484C97.7108 32.1484 98.567 32.5071 99.2034 33.2243C99.8398 33.9416 100.161 34.9089 100.161 36.1262V36.3467H94.5027C94.5453 37.0639 94.7815 37.6232 95.2047 38.0246C95.6311 38.426 96.1986 38.6267 96.9137 38.6267C97.3926 38.6267 97.8945 38.5379 98.4128 38.3602C98.9344 38.1826 99.4724 37.9128 100.027 37.5509V39.0676V39.0709ZM94.4994 35.2741H98.4981C98.4489 34.7213 98.2488 34.2805 97.9011 33.9449C97.5534 33.6126 97.1171 33.4448 96.5922 33.4448C96.0149 33.4448 95.5491 33.5994 95.1948 33.9087C94.8406 34.2179 94.6076 34.672 94.4994 35.2741Z" fill="white"/>
<path d="M110.035 43.6868V32.2963H111.557V32.7241C111.839 32.5234 112.141 32.372 112.456 32.2766C112.771 32.1812 113.122 32.1318 113.502 32.1318C114.591 32.1318 115.48 32.497 116.166 33.2307C116.852 33.9644 117.196 34.912 117.196 36.0767C117.196 37.2414 116.852 38.189 116.166 38.9227C115.48 39.6564 114.591 40.0216 113.502 40.0216C113.109 40.0216 112.758 39.9756 112.443 39.8867C112.128 39.7979 111.833 39.6531 111.557 39.4557V43.6868H110.035ZM111.557 33.9612V38.2087C111.803 38.3897 112.052 38.5213 112.305 38.6068C112.558 38.6924 112.83 38.7352 113.119 38.7352C113.886 38.7352 114.493 38.4983 114.933 38.0245C115.375 37.5507 115.595 36.9026 115.595 36.0767C115.595 35.2509 115.375 34.6126 114.933 34.1454C114.49 33.6782 113.886 33.4446 113.119 33.4446C112.83 33.4446 112.558 33.4841 112.305 33.5663C112.052 33.6486 111.803 33.7802 111.557 33.9612Z" fill="white"/>
<path d="M118.167 36.0801C118.167 34.9812 118.557 34.0501 119.335 33.2835C120.115 32.5169 121.067 32.1353 122.189 32.1353C122.717 32.1353 123.222 32.234 123.704 32.4347C124.186 32.6354 124.619 32.9216 125 33.2901C125.387 33.6849 125.682 34.1159 125.882 34.5864C126.082 35.0569 126.184 35.5537 126.184 36.0801C126.184 36.6066 126.079 37.1067 125.872 37.5969C125.666 38.0904 125.374 38.5181 124.997 38.8834C124.616 39.2617 124.186 39.5447 123.707 39.7355C123.232 39.9263 122.723 40.0217 122.182 40.0217C121.06 40.0217 120.109 39.6401 119.328 38.8735C118.547 38.1069 118.16 37.1758 118.16 36.0769L118.167 36.0801ZM119.745 36.0801C119.745 36.7842 119.981 37.3863 120.457 37.8831C120.932 38.38 121.503 38.63 122.172 38.63C122.841 38.63 123.409 38.38 123.885 37.8799C124.36 37.3798 124.6 36.7809 124.6 36.0801C124.6 35.3793 124.363 34.7904 123.888 34.2936C123.412 33.7968 122.841 33.5467 122.172 33.5467C121.503 33.5467 120.929 33.7968 120.457 34.2936C119.981 34.7904 119.745 35.3859 119.745 36.0801Z" fill="white"/>
<path d="M127.667 39.8736V28.4009H129.172V39.8736H127.667ZM134.329 32.2964L131.164 35.7577L134.965 39.8736H132.905L129.218 35.8399L132.472 32.2964H134.329Z" fill="white"/>
<path d="M135.736 39.8736V28.4009H137.242V33.2209C137.619 32.859 137.993 32.5958 138.367 32.428C138.741 32.2602 139.141 32.178 139.574 32.178C140.398 32.178 141.047 32.4149 141.52 32.8919C141.995 33.369 142.231 34.0205 142.231 34.8529V39.8703H140.709V35.2378C140.709 34.6193 140.581 34.1652 140.329 33.8757C140.076 33.5862 139.679 33.4414 139.138 33.4414C138.741 33.4414 138.39 33.5171 138.092 33.6717C137.793 33.823 137.508 34.0698 137.242 34.4087V39.8703H135.736V39.8736Z" fill="white"/>
<path d="M147.86 39.2517C147.48 39.5182 147.119 39.7124 146.778 39.8308C146.437 39.9493 146.069 40.0052 145.679 40.0052C145.003 40.0052 144.475 39.844 144.095 39.5182C143.714 39.1925 143.524 38.7451 143.524 38.1792C143.524 37.6429 143.73 37.1724 144.147 36.7677C144.56 36.363 145.184 36.0208 146.02 35.7412L147.811 35.1423C147.818 35.0996 147.821 35.0535 147.824 35.0107C147.824 34.968 147.828 34.9055 147.828 34.8232C147.828 34.3692 147.716 34.0434 147.496 33.8427C147.276 33.642 146.912 33.5433 146.404 33.5433C145.984 33.5433 145.551 33.6322 145.105 33.8098C144.659 33.9875 144.209 34.2507 143.763 34.5995V33.1057C144.15 32.7899 144.583 32.5497 145.062 32.3885C145.541 32.2273 146.053 32.145 146.591 32.145C147.562 32.145 148.267 32.3589 148.71 32.7899C149.153 33.2176 149.373 33.9118 149.373 34.8693V38.0739C149.373 38.3404 149.396 38.5312 149.442 38.6431C149.487 38.7549 149.566 38.8109 149.674 38.8109C149.766 38.8109 149.865 38.7878 149.966 38.7385C150.068 38.6891 150.232 38.574 150.462 38.393V39.311C150.189 39.5446 149.914 39.7189 149.635 39.8308C149.356 39.9427 149.068 39.9986 148.769 39.9986C148.471 39.9986 148.264 39.9394 148.12 39.8176C147.975 39.6959 147.893 39.5051 147.87 39.2452L147.86 39.2517ZM147.805 38.3338V36.1129C146.791 36.4288 146.092 36.7216 145.708 36.9914C145.325 37.2579 145.131 37.5705 145.131 37.9258C145.131 38.2384 145.23 38.4786 145.43 38.6464C145.63 38.8174 145.909 38.8997 146.269 38.8997C146.535 38.8997 146.798 38.8536 147.053 38.7549C147.309 38.6595 147.562 38.518 147.805 38.3338Z" fill="white"/>
<path d="M151.36 39.8739V32.2966H152.866V33.945C153.286 33.2837 153.663 32.8231 153.998 32.5599C154.332 32.2966 154.697 32.165 155.09 32.165C155.362 32.165 155.638 32.2243 155.92 32.346C156.202 32.4677 156.501 32.652 156.816 32.9053L155.999 34.251C155.753 34.0371 155.52 33.8825 155.297 33.7871C155.074 33.6917 154.838 33.6423 154.595 33.6423C154.185 33.6423 153.831 33.8134 153.525 34.1589C153.22 34.5043 153.001 34.9814 152.873 35.5934V39.8739H151.367H151.36Z" fill="white"/>
<path d="M161.392 39.2517C161.011 39.5182 160.65 39.7124 160.309 39.8308C159.968 39.9493 159.601 40.0052 159.21 40.0052C158.534 40.0052 158.006 39.844 157.626 39.5182C157.245 39.1925 157.055 38.7451 157.055 38.1792C157.055 37.6429 157.262 37.1724 157.678 36.7677C158.092 36.363 158.715 36.0208 159.551 35.7412L161.342 35.1423C161.349 35.0996 161.352 35.0535 161.356 35.0107C161.356 34.968 161.359 34.9055 161.359 34.8232C161.359 34.3692 161.247 34.0434 161.028 33.8427C160.808 33.642 160.444 33.5433 159.935 33.5433C159.515 33.5433 159.082 33.6322 158.636 33.8098C158.19 33.9875 157.741 34.2507 157.295 34.5995V33.1057C157.682 32.7899 158.115 32.5497 158.594 32.3885C159.072 32.2273 159.584 32.145 160.122 32.145C161.093 32.145 161.798 32.3589 162.241 32.7899C162.684 33.2176 162.904 33.9118 162.904 34.8693V38.0739C162.904 38.3404 162.927 38.5312 162.973 38.6431C163.019 38.7549 163.097 38.8109 163.206 38.8109C163.297 38.8109 163.396 38.7878 163.498 38.7385C163.599 38.6891 163.763 38.574 163.993 38.393V39.311C163.721 39.5446 163.445 39.7189 163.166 39.8308C162.887 39.9427 162.599 39.9986 162.3 39.9986C162.002 39.9986 161.795 39.9394 161.651 39.8176C161.506 39.6959 161.424 39.5051 161.401 39.2452L161.392 39.2517ZM161.336 38.3338V36.1129C160.322 36.4288 159.624 36.7216 159.24 36.9914C158.856 37.2579 158.662 37.5705 158.662 37.9258C158.662 38.2384 158.761 38.4786 158.961 38.6464C159.161 38.8174 159.44 38.8997 159.801 38.8997C160.066 38.8997 160.329 38.8536 160.585 38.7549C160.841 38.6595 161.093 38.518 161.336 38.3338Z" fill="white"/>
<path d="M54.3549 10.0186C54.3549 9.63366 54.4861 9.30793 54.7485 9.04472C55.0109 8.78151 55.3357 8.6499 55.7195 8.6499C56.1033 8.6499 56.428 8.78151 56.6937 9.04472C56.9562 9.30793 57.0874 9.63366 57.0874 10.0186C57.0874 10.4036 56.9562 10.7293 56.6937 10.9925C56.4313 11.2557 56.1065 11.3873 55.7195 11.3873C55.3324 11.3873 55.0109 11.2557 54.7485 10.9925C54.4861 10.7293 54.3549 10.4036 54.3549 10.0186ZM54.5123 25.785V13.6049H56.9299V25.785H54.5123Z" fill="white"/>
<path d="M59.4393 25.7853V13.6051H61.8569V15.0956C62.4605 14.5165 63.0641 14.0921 63.6644 13.8223C64.2647 13.5525 64.9109 13.4209 65.6031 13.4209C66.9185 13.4209 67.955 13.8026 68.7128 14.5692C69.4705 15.3325 69.8511 16.3853 69.8511 17.7211V25.7886H67.4335V18.3397C67.4335 17.3559 67.2235 16.6288 66.8102 16.1583C66.3936 15.6878 65.7474 15.4542 64.8715 15.4542C64.2483 15.4542 63.7037 15.5759 63.2347 15.8161C62.7656 16.0563 62.3096 16.4544 61.8602 17.0105V25.7886H59.4426L59.4393 25.7853Z" fill="white"/>
<path d="M75.2604 25.7851H72.7641V15.7139H71.1731V13.6049H72.7641V12.4962C72.7641 11.4433 72.8067 10.6767 72.8953 10.2029C72.9838 9.72915 73.1347 9.31459 73.3545 8.96254C73.7055 8.39006 74.1877 7.94589 74.8077 7.63003C75.4244 7.31418 76.1165 7.15625 76.8776 7.15625C77.1138 7.15625 77.3827 7.17928 77.6845 7.22205C77.9863 7.26483 78.3668 7.3405 78.8228 7.44578V9.58109C78.4816 9.512 78.1864 9.45935 77.9371 9.42316C77.6878 9.38697 77.4713 9.37052 77.2876 9.37052C76.5528 9.37052 76.0312 9.57451 75.7229 9.98249C75.4178 10.3905 75.2637 11.1044 75.2637 12.1244V13.6017H76.8808V15.7106H75.2637V25.7818L75.2604 25.7851Z" fill="white"/>
<path d="M77.8485 19.6819C77.8485 17.9151 78.4751 16.4181 79.7281 15.1876C80.9812 13.9571 82.5098 13.3418 84.314 13.3418C85.1636 13.3418 85.9771 13.503 86.7513 13.8222C87.5254 14.1413 88.2209 14.6019 88.8343 15.2007C89.4576 15.8324 89.9299 16.5267 90.2547 17.2834C90.5794 18.0401 90.7402 18.8396 90.7402 19.6819C90.7402 20.5242 90.5729 21.3303 90.2416 22.1199C89.907 22.9096 89.4379 23.6005 88.8343 24.1894C88.2209 24.7948 87.532 25.2521 86.7644 25.5614C85.9968 25.8674 85.18 26.022 84.314 26.022C82.5098 26.022 80.9779 25.4068 79.7281 24.1763C78.4751 22.9457 77.8485 21.4487 77.8485 19.6819ZM80.3842 19.6819C80.3842 20.817 80.7647 21.781 81.529 22.5805C82.2901 23.38 83.2118 23.7814 84.2878 23.7814C85.3637 23.7814 86.2756 23.38 87.04 22.574C87.8076 21.7712 88.1914 20.8071 88.1914 19.6819C88.1914 18.5567 87.8108 17.6091 87.0465 16.8063C86.2855 16.0068 85.3637 15.6054 84.2878 15.6054C83.2118 15.6054 82.2901 16.0068 81.529 16.8063C80.768 17.6058 80.3842 18.5633 80.3842 19.6819Z" fill="white"/>
<path d="M92.3934 25.7852V13.6051H94.811V16.2537C95.4868 15.191 96.0936 14.4474 96.6316 14.0262C97.1696 13.6051 97.7535 13.3945 98.3866 13.3945C98.8228 13.3945 99.269 13.4899 99.7217 13.6841C100.171 13.8782 100.653 14.1776 101.162 14.5823L99.8463 16.7439C99.4527 16.4017 99.0754 16.1517 98.7146 16.0003C98.3538 15.8457 97.9765 15.77 97.5829 15.77C96.9268 15.77 96.3528 16.0464 95.8607 16.6024C95.3687 17.1552 95.021 17.9251 94.8077 18.9088V25.7918H92.3901L92.3934 25.7852Z" fill="white"/>
<path d="M101.792 25.7853V13.6051H104.209V15.0956C104.813 14.5165 105.416 14.0921 106.017 13.8223C106.617 13.5525 107.263 13.4209 107.955 13.4209C108.847 13.4209 109.595 13.5854 110.196 13.9144C110.796 14.2434 111.301 14.7633 111.714 15.4772C112.459 14.7402 113.158 14.2105 113.811 13.8947C114.463 13.5788 115.159 13.4209 115.894 13.4209C117.216 13.4209 118.262 13.8026 119.03 14.5692C119.797 15.3325 120.181 16.3853 120.181 17.7211V25.7886H117.724V18.3397C117.724 17.346 117.521 16.6189 117.114 16.1517C116.707 15.6878 116.071 15.4542 115.201 15.4542C114.562 15.4542 114.004 15.5759 113.532 15.8161C113.059 16.0563 112.597 16.4544 112.151 17.0105V25.7886H109.786V18.3397C109.786 17.3559 109.576 16.6288 109.162 16.1583C108.746 15.6878 108.1 15.4542 107.224 15.4542C106.6 15.4542 106.056 15.5759 105.587 15.8161C105.118 16.0563 104.662 16.4544 104.212 17.0105V25.7886H101.795L101.792 25.7853Z" fill="white"/>
<path d="M140.178 25.4033C139.801 25.6138 139.397 25.7685 138.961 25.8705C138.528 25.9725 138.062 26.0218 137.56 26.0218C136.192 26.0218 135.231 25.6961 134.673 25.0479C134.116 24.3965 133.84 23.212 133.84 21.488V15.7138H131.777V13.6048H133.84V12.4401L136.022 10.772H136.297V13.6048H140.096V15.7138H136.297V21.3037C136.297 22.3138 136.422 22.9686 136.671 23.2614C136.921 23.5575 137.386 23.7023 138.072 23.7023C138.439 23.7023 138.8 23.6529 139.151 23.5575C139.502 23.4621 139.843 23.3107 140.175 23.11V25.4033H140.178Z" fill="white"/>
<path d="M141.385 10.0186C141.385 9.63366 141.516 9.30793 141.779 9.04472C142.041 8.78151 142.366 8.6499 142.75 8.6499C143.133 8.6499 143.458 8.78151 143.724 9.04472C143.986 9.30793 144.118 9.63366 144.118 10.0186C144.118 10.4036 143.986 10.7293 143.724 10.9925C143.461 11.2557 143.137 11.3873 142.75 11.3873C142.363 11.3873 142.041 11.2557 141.779 10.9925C141.516 10.7293 141.385 10.4036 141.385 10.0186ZM141.542 25.785V13.6049H143.96V25.785H141.542Z" fill="white"/>
<path d="M155.969 22.8997V25.3772C155.356 25.5976 154.759 25.7588 154.182 25.8641C153.604 25.9694 153.03 26.022 152.459 26.022C150.478 26.022 148.854 25.4265 147.582 24.2355C146.312 23.0445 145.676 21.5277 145.676 19.6819C145.676 17.8361 146.312 16.372 147.582 15.1613C148.851 13.9472 150.442 13.3418 152.351 13.3418C152.938 13.3418 153.516 13.4043 154.086 13.526C154.657 13.6478 155.218 13.8386 155.769 14.092V16.6879C155.208 16.3457 154.654 16.0924 154.106 15.9311C153.558 15.7699 153.001 15.6877 152.43 15.6877C151.187 15.6877 150.17 16.0628 149.389 16.8096C148.605 17.5565 148.211 18.5139 148.211 19.6852C148.211 20.8565 148.612 21.8534 149.409 22.6036C150.206 23.3537 151.252 23.7321 152.551 23.7321C153.148 23.7321 153.729 23.663 154.293 23.5281C154.857 23.3932 155.418 23.1826 155.969 22.903V22.8997Z" fill="white"/>
<path d="M156.848 24.9562V22.3602C157.577 22.8439 158.275 23.2124 158.951 23.469C159.627 23.7223 160.243 23.8507 160.804 23.8507C161.428 23.8507 161.913 23.7355 162.271 23.5019C162.625 23.2683 162.802 22.9492 162.802 22.5478C162.802 22.0378 162.14 21.4521 160.818 20.7941C160.43 20.6 160.135 20.4454 159.922 20.3335C158.79 19.7544 158.016 19.1918 157.596 18.6522C157.176 18.1126 156.966 17.4513 156.966 16.6683C156.966 15.6483 157.331 14.8389 158.059 14.2434C158.787 13.6446 159.784 13.3452 161.057 13.3452C161.739 13.3452 162.399 13.4275 163.028 13.5887C163.658 13.7532 164.278 14.0032 164.882 14.3454V16.7176C164.137 16.3031 163.455 16.0004 162.838 15.803C162.222 15.6055 161.634 15.5068 161.083 15.5068C160.575 15.5068 160.184 15.5957 159.906 15.7701C159.63 15.9477 159.492 16.2011 159.492 16.5334C159.492 17.1486 160.339 17.8725 162.028 18.7082L162.251 18.8134C163.573 19.4813 164.436 20.067 164.839 20.5737C165.243 21.0804 165.443 21.7186 165.443 22.4918C165.443 23.5644 165.043 24.4199 164.239 25.0614C163.435 25.703 162.376 26.0222 161.05 26.0222C160.289 26.0222 159.561 25.9333 158.876 25.759C158.187 25.5846 157.511 25.3148 156.845 24.9562H156.848Z" fill="white"/>
<path d="M104.888 34.5601C105.751 34.5601 106.42 35.2312 106.42 36.0966C106.42 36.9619 105.751 37.6331 104.888 37.6331C104.025 37.6331 103.356 36.9421 103.356 36.0966C103.356 35.251 104.025 34.5601 104.888 34.5601Z" fill="white"/>
<path d="M131.551 23.7552C131.39 23.8341 131.232 23.8736 131.085 23.8736C130.911 23.8736 130.786 23.7848 130.711 23.6038C130.635 23.4229 130.599 23.1169 130.599 22.6892V17.5335C130.599 15.9937 130.245 14.8816 129.533 14.1907C128.825 13.4998 127.69 13.1543 126.128 13.1543C125.259 13.1543 124.442 13.2826 123.668 13.5425C122.897 13.8025 122.202 14.1874 121.578 14.6974V17.0959C122.297 16.5333 123.015 16.1089 123.734 15.8226C124.452 15.5364 125.147 15.3949 125.823 15.3949C126.64 15.3949 127.224 15.5561 127.578 15.8753C127.932 16.1944 128.11 16.7208 128.11 17.4512C128.11 17.5105 128.11 17.5631 128.11 17.6125L128.083 20.0965V23.0938C127.69 23.3932 127.286 23.6203 126.873 23.7716C126.46 23.9262 126.04 24.0019 125.613 24.0019C125.036 24.0019 124.587 23.8637 124.265 23.5939C123.944 23.3209 123.786 22.9359 123.786 22.4325C123.786 21.86 124.094 21.3599 124.711 20.9289C125.184 20.5999 125.951 20.2479 127.014 19.8728V18.3198L125.203 18.9252C123.862 19.3727 122.858 19.9221 122.192 20.5736C121.526 21.225 121.191 21.9785 121.191 22.8405C121.191 23.7552 121.496 24.4724 122.113 24.9955C122.727 25.5187 123.576 25.7786 124.662 25.7786C125.295 25.7786 125.882 25.6832 126.43 25.4956C126.978 25.3081 127.559 24.9955 128.172 24.5678C128.208 24.989 128.339 25.2982 128.572 25.4891C128.805 25.6832 129.153 25.7786 129.619 25.7786C130.084 25.7786 130.563 25.6898 131.009 25.5088C131.456 25.3279 131.898 25.0482 132.338 24.6731V23.1958C131.971 23.4854 131.705 23.6696 131.544 23.7486L131.551 23.7552Z" fill="white"/>
<path d="M186.814 0H186.234V48H186.814V0Z" fill="white"/>
<path fill-rule="evenodd" clip-rule="evenodd" d="M241.946 38.3599C241.946 37.2906 240.719 36.6128 238.492 36.6128C236.134 36.6128 234.907 37.261 234.907 38.3303C234.907 39.1199 235.389 39.6562 236.35 39.9391H240.431C241.425 39.6529 241.943 39.1166 241.943 38.3632L241.946 38.3599Z" fill="#74C044"/>
<path fill-rule="evenodd" clip-rule="evenodd" d="M258.748 8.06104H219.991C217.091 8.06104 214.739 10.4464 214.739 13.3911V34.6093C214.739 37.5539 217.091 39.9393 219.991 39.9393H230.846C230.669 39.5215 230.577 39.0707 230.577 38.587C230.577 36.84 231.932 35.5437 234.549 34.8626C233.388 34.5073 232.804 33.892 232.804 33.0168C232.804 31.8521 233.644 31.1052 235.323 30.717C232.676 29.9405 231.548 28.6672 231.351 26.2128C231.321 25.8278 231.315 24.9066 231.643 23.9985C232.965 20.3465 239.775 18.4283 239.775 18.4283L239.296 17.5498L242.576 18.55L242.028 21.5408L241.346 20.7873C238.105 21.8698 236.465 23.5182 235.973 24.8046C235.501 26.045 235.783 28.6047 238.203 28.6442C240.624 28.6837 241.582 26.7359 240.857 25.104C240.132 23.4721 237.944 23.5675 237.944 23.5675L241.034 21.4421C242.078 21.7546 242.888 22.2153 243.478 22.643C244.653 23.4984 245.394 24.8507 245.401 26.3049C245.401 26.3148 245.401 26.3247 245.401 26.3345C245.401 29.0555 243.787 30.6413 240.621 31.1941C238.554 31.5494 237.262 31.227 237.262 32.3917C237.262 33.3952 238.554 33.2669 241.362 33.6222C244.59 34.0434 246.27 35.5996 246.27 38.0277C246.27 38.7351 246.135 39.3668 245.879 39.9294H258.745C261.645 39.9294 263.997 37.5441 263.997 34.5994V13.3944C263.997 10.4497 261.645 8.06433 258.745 8.06433L258.748 8.06104Z" fill="#74C044"/>
<path d="M241.366 33.632C238.558 33.2766 237.265 33.4049 237.265 32.4014C237.265 31.2367 238.558 31.5592 240.624 31.2038C243.79 30.6544 245.404 29.0652 245.404 26.3443V26.3147C245.397 24.8571 244.656 23.5082 243.482 22.6527C242.891 22.225 242.081 21.7644 241.038 21.4518L237.948 23.5773C237.948 23.5773 240.136 23.4818 240.861 25.1138C241.586 26.7457 240.628 28.6934 238.207 28.654C235.786 28.6112 235.504 26.0514 235.979 24.8144C236.472 23.5246 238.115 21.8795 241.353 20.7971L242.035 21.5505L242.583 18.5598L239.299 17.5596L239.778 18.438C239.778 18.438 232.968 20.3562 231.646 24.0083C231.318 24.9131 231.325 25.8376 231.354 26.2225C231.551 28.677 232.679 29.9503 235.327 30.7268C233.647 31.115 232.807 31.8619 232.807 33.0266C232.807 33.9017 233.388 34.517 234.553 34.8723C231.935 35.5534 230.58 36.8464 230.58 38.5968C230.58 39.0804 230.672 39.5312 230.849 39.949H236.353C235.392 39.6661 234.91 39.1298 234.91 38.3402C234.91 37.2709 236.137 36.6227 238.495 36.6227C240.723 36.6227 241.95 37.3038 241.95 38.3698C241.95 39.1265 241.431 39.6628 240.437 39.9458H245.886C246.142 39.3864 246.276 38.7547 246.276 38.044C246.276 35.6159 244.597 34.0597 241.369 33.6385L241.366 33.632Z" fill="white"/>
<path fill-rule="evenodd" clip-rule="evenodd" d="M246.007 18.0532C246.342 18.0532 246.67 18.1388 246.988 18.3131C247.306 18.4875 247.556 18.731 247.733 19.0534C247.91 19.3759 247.999 19.7082 247.999 20.0569C247.999 20.4057 247.91 20.7314 247.736 21.0505C247.562 21.3697 247.316 21.6165 246.998 21.7908C246.683 21.9652 246.352 22.054 246.007 22.054C245.663 22.054 245.332 21.9652 245.017 21.7908C244.699 21.6165 244.453 21.3697 244.279 21.0505C244.102 20.7314 244.013 20.3991 244.013 20.0569C244.013 19.7147 244.102 19.3759 244.282 19.0534C244.459 18.7343 244.708 18.4875 245.03 18.3131C245.348 18.1421 245.676 18.0532 246.011 18.0532M247.451 19.2179C247.303 18.9514 247.093 18.7442 246.827 18.5994C246.562 18.4546 246.289 18.3822 246.011 18.3822C245.732 18.3822 245.46 18.4546 245.194 18.5994C244.928 18.7442 244.721 18.9481 244.571 19.2179C244.42 19.4844 244.344 19.7641 244.344 20.0536C244.344 20.3432 244.42 20.6195 244.564 20.8828C244.712 21.146 244.915 21.3532 245.181 21.5013C245.446 21.6494 245.722 21.7217 246.007 21.7217C246.293 21.7217 246.572 21.6494 246.834 21.5013C247.1 21.3532 247.306 21.146 247.451 20.8828C247.598 20.6195 247.671 20.3432 247.671 20.0536C247.671 19.7641 247.595 19.4844 247.447 19.2179M246.654 20.5702C246.726 20.8828 246.778 21.0999 246.824 21.1854H246.526C246.49 21.1229 246.44 20.9288 246.378 20.6524C246.312 20.3432 246.191 20.228 245.929 20.2181H245.656V21.1887H245.368V18.9843C245.512 18.9547 245.725 18.935 245.919 18.935C246.227 18.935 246.427 18.9942 246.568 19.1225C246.677 19.2179 246.742 19.3726 246.742 19.547C246.742 19.8398 246.555 20.0339 246.322 20.1161V20.126C246.49 20.1852 246.595 20.3465 246.65 20.5768M246.453 19.5766C246.453 19.287 246.247 19.162 245.942 19.162C245.801 19.162 245.706 19.1752 245.656 19.1883V20.001H245.952C246.26 20.001 246.453 19.8332 246.453 19.5766Z" fill="white"/>
<path d="M216.216 20.6459H220.897V22.5245C222.415 20.9716 223.964 20.353 225.997 20.353C229.229 20.353 231.069 22.36 231.069 26.1503V35.6391H226.355V26.7984C226.355 24.7256 225.742 23.7221 224.256 23.7221C222.77 23.7221 221.707 24.6927 220.897 26.0878V35.6424H216.216V20.6459Z" fill="white"/>
<path d="M210.393 14.4868C211.968 14.4868 213.185 15.7075 213.185 17.2867C213.185 18.866 211.968 20.0867 210.393 20.0867C208.818 20.0867 207.601 18.8298 207.601 17.2867C207.601 15.7437 208.818 14.4868 210.393 14.4868Z" fill="#74C044"/>
<path d="M213.089 20.5933H207.601V35.7609H213.089V20.5933Z" fill="#74C044"/>
</g>
<defs>
<clipPath id="clip0_8_484">
<rect width="264" height="48" fill="white"/>
</clipPath>
</defs>
</svg>
