<svg width="376" height="86" viewBox="0 0 376 86" fill="none" xmlns="http://www.w3.org/2000/svg">
<g clip-path="url(#clip0_8_379)">
<path d="M18.6627 68.6659C18.6627 67.4423 18.2165 66.4736 17.324 65.8618C16.4315 65.1583 14.8334 64.5465 12.5087 63.7613C10.1945 62.9762 8.40953 62.2726 7.0708 61.5691C3.41783 59.6419 1.54983 57.0112 1.54983 53.6872C1.54983 51.9333 1.99608 50.4447 2.97159 49.1293C3.94709 47.8139 5.37922 46.7637 7.1642 45.9786C9.03219 45.1934 11.087 44.8365 13.3182 44.8365C15.5494 44.8365 17.6872 45.275 19.4722 46.0601C21.2572 46.8453 22.6789 48.0791 23.6648 49.5576C24.6403 51.0462 25.18 52.7083 25.18 54.6354H18.5901C18.5901 53.1467 18.1439 52.0965 17.1683 51.2196C16.1928 50.3427 14.9371 49.996 13.2456 49.996C11.637 49.996 10.3917 50.3427 9.49919 51.0462C8.6067 51.7498 8.16046 52.6267 8.16046 53.677C8.16046 54.7272 8.7001 55.6041 9.76901 56.3077C10.8379 57.0112 12.3531 57.623 14.4079 58.2348C18.1542 59.3768 20.9147 60.7738 22.6997 62.3542C24.3913 64.0163 25.2837 66.0352 25.2837 68.4823C25.2837 71.1946 24.2148 73.3869 22.16 74.9571C20.0222 76.5376 17.2617 77.3228 13.6918 77.3228C11.2011 77.3228 8.96992 76.8843 6.91513 76.0074C4.86034 75.1305 3.35556 73.9069 2.27628 72.3264C1.20737 70.746 0.667725 69.0024 0.667725 66.9834H7.34062C7.34062 70.4809 9.47844 72.2347 13.671 72.2347C15.2796 72.2347 16.5249 71.888 17.324 71.2762C18.1231 70.6644 18.6627 69.6957 18.6627 68.6455V68.6659Z" fill="#999999"/>
<path d="M39.3352 72.255C40.4976 72.255 41.4731 71.9083 42.1891 71.2965C42.9052 70.6848 43.3514 69.8078 43.3514 68.7576H49.3186C49.3186 70.3381 48.8724 71.8268 47.9799 73.1319C47.0874 74.4473 45.9251 75.4975 44.4203 76.2011C42.9052 76.9046 41.2136 77.3431 39.4286 77.3431C36.0455 77.3431 33.2746 76.2929 31.3236 74.1006C29.3622 72.0001 28.3867 69.0227 28.3867 65.2602V64.8217C28.3867 61.2326 29.3622 58.3469 31.3236 56.1547C33.285 53.9624 35.9625 52.9122 39.4286 52.9122C42.4589 52.9122 44.7732 53.7891 46.6516 55.4511C48.4365 57.1131 49.412 59.387 49.412 62.1095H43.4448C43.4448 60.8859 42.9986 59.9172 42.2825 59.1321C41.5665 58.3469 40.591 57.99 39.3456 57.99C37.8305 57.99 36.7616 58.5203 35.9625 59.5705C35.1634 60.6208 34.8002 62.3746 34.8002 64.7402V65.352C34.8002 67.7991 35.153 69.5529 35.9625 70.6032C36.6785 71.7452 37.8305 72.2652 39.3456 72.2652L39.3352 72.255Z" fill="#999999"/>
<path d="M59.3021 55.961C60.9937 53.942 63.1315 52.9836 65.7156 52.9836C70.8837 52.9836 73.5612 55.961 73.6442 61.824V76.8843H67.2307V61.9973C67.2307 60.682 66.9609 59.6317 66.3382 59.0199C65.7156 58.4081 64.7297 58.0615 63.4013 58.0615C61.5333 58.0615 60.1946 58.765 59.3021 60.1619V76.8843H52.8887V43.5314H59.3021V55.961Z" fill="#999999"/>
<path d="M77.3905 64.9849C77.3905 62.6193 77.8368 60.6106 78.7293 58.765C79.6218 56.9296 80.9605 55.5225 82.6521 54.564C84.3436 53.6055 86.3984 53.0753 88.6193 53.0753C91.826 53.0753 94.5034 54.0338 96.5479 55.9609C98.6027 57.8881 99.7546 60.5188 99.931 63.8429V65.4233C99.931 69.0125 98.9555 71.8981 96.9007 74.0904C94.8563 76.2827 92.0854 77.3329 88.6089 77.3329C85.1323 77.3329 82.3719 76.2827 80.3171 74.0904C78.2623 71.8981 77.1934 68.9208 77.1934 65.25V64.9849H77.3698H77.3905ZM83.721 65.4233C83.721 67.6972 84.1672 69.3592 84.9663 70.593C85.8588 71.8166 87.0211 72.3468 88.6193 72.3468C90.1344 72.3468 91.3797 71.735 92.2722 70.593C93.1647 69.451 93.611 67.5238 93.611 64.9849C93.611 62.7926 93.1647 61.1306 92.2722 59.907C91.3797 58.6834 90.2174 58.0716 88.6193 58.0716C87.0211 58.0716 85.8588 58.6834 84.9663 59.8254C84.1672 61.049 83.721 62.8946 83.721 65.4335V65.4233Z" fill="#999999"/>
<path d="M110.713 76.8945H104.3V43.5314H110.713V76.8945Z" fill="#999999"/>
<path d="M129.788 76.8945C129.518 76.3642 129.248 75.6709 129.165 74.794C127.65 76.456 125.606 77.3329 123.105 77.3329C120.79 77.3329 118.829 76.6293 117.314 75.314C115.799 73.9986 115 72.3366 115 70.2361C115 67.7889 115.975 65.8618 117.853 64.5464C119.721 63.2311 122.482 62.5275 125.958 62.5275H128.895V61.2122C128.895 60.1619 128.625 59.285 128.003 58.5815C127.474 57.9697 126.581 57.623 125.325 57.623C124.256 57.623 123.364 57.8881 122.835 58.4081C122.212 58.9383 121.942 59.6317 121.942 60.5086H115.529C115.529 59.1117 115.975 57.8779 116.774 56.7461C117.573 55.6041 118.819 54.6456 120.427 54.0338C122.036 53.3302 123.727 53.0753 125.689 53.0753C128.626 53.0753 130.95 53.7789 132.725 55.2676C134.51 56.7563 135.309 58.765 135.309 61.3957V71.5515C135.309 73.7437 135.662 75.4873 136.284 76.6293V76.976H129.777V76.8843L129.788 76.8945ZM124.526 72.5201C125.502 72.5201 126.311 72.3468 127.11 71.9083C127.909 71.4699 128.532 70.9499 128.895 70.2463V66.2187H126.488C123.281 66.2187 121.589 67.2689 121.413 69.4612V69.8078C121.413 70.593 121.683 71.2048 122.212 71.735C122.835 72.3468 123.551 72.5201 124.526 72.5201Z" fill="#999999"/>
<path d="M153.677 59.2952C152.785 59.2035 152.079 59.1219 151.363 59.1219C148.955 59.1219 147.357 59.907 146.641 61.5691V76.9761H140.228V53.422H146.288L146.465 56.2261C147.71 54.0338 149.495 52.9836 151.809 52.9836C152.525 52.9836 153.148 53.0753 153.771 53.2487L153.677 59.2952Z" fill="#999999"/>
<path d="M169.711 70.4095C169.711 69.6243 169.358 69.0125 168.549 68.5741C167.75 68.1356 166.504 67.6972 164.802 67.3505C159.095 66.2085 156.251 63.7613 156.251 60.2537C156.251 58.1532 157.144 56.3994 158.929 55.0025C160.714 53.6055 163.028 52.902 165.882 52.902C168.912 52.902 171.32 53.6055 173.188 55.0025C174.973 56.3994 175.948 58.245 175.948 60.5188H169.535C169.535 59.6419 169.265 58.8568 168.642 58.3265C168.019 57.7147 167.127 57.4496 165.882 57.4496C164.813 57.4496 164.014 57.7147 163.391 58.1532C162.768 58.5917 162.499 59.2034 162.499 59.9886C162.499 60.6921 162.851 61.2122 163.474 61.6506C164.097 62.0891 165.259 62.4357 166.857 62.7926C168.466 63.1393 169.794 63.4962 170.863 63.8429C174.246 65.0665 175.938 67.1669 175.938 70.1443C175.938 72.2448 174.962 73.9986 173.084 75.314C171.216 76.6293 168.808 77.3227 165.861 77.3227C163.899 77.3227 162.115 76.976 160.516 76.2725C159.001 75.5689 157.756 74.6104 156.863 73.3868C155.971 72.1633 155.525 70.8479 155.525 69.451H161.585C161.679 70.593 162.032 71.3781 162.831 71.9899C163.63 72.6017 164.699 72.8668 165.954 72.8668C167.21 72.8668 168.092 72.6017 168.715 72.1633C169.337 71.7248 169.69 71.2048 169.69 70.4095H169.711Z" fill="#999999"/>
<path d="M186.295 55.961C187.986 53.942 190.124 52.9836 192.708 52.9836C197.876 52.9836 200.554 55.961 200.637 61.824V76.8843H194.223V61.9973C194.223 60.682 193.953 59.6317 193.331 59.0199C192.708 58.4081 191.722 58.0615 190.394 58.0615C188.526 58.0615 187.187 58.765 186.295 60.1619V76.8843H179.881V43.5314H186.295V55.961Z" fill="#999999"/>
<path d="M205.275 47.2939C205.275 46.3354 205.628 45.5401 206.251 44.9283C206.874 44.3165 207.766 44.0514 208.835 44.0514C209.904 44.0514 210.796 44.3165 211.419 44.9283C212.042 45.5401 212.405 46.3252 212.405 47.2939C212.405 48.2626 212.052 49.0477 211.419 49.6595C210.796 50.2713 209.904 50.5364 208.835 50.5364C207.766 50.5364 206.874 50.2713 206.251 49.6595C205.628 49.0477 205.275 48.2626 205.275 47.2939ZM212.135 76.8843H205.722V53.422H212.135V76.8843Z" fill="#999999"/>
<path d="M238.868 65.4234C238.868 69.0125 238.069 71.8982 236.378 74.0904C234.686 76.2827 232.455 77.3329 229.601 77.3329C227.193 77.3329 225.232 76.5478 223.717 74.8858V86.0102H217.303V53.4424H223.187L223.364 55.7162C224.879 53.8809 226.923 53.004 229.424 53.004C232.361 53.004 234.686 54.0542 236.284 56.2465C237.893 58.347 238.775 61.3243 238.775 65.0869V65.4336H238.868V65.4234ZM232.538 64.8931C232.538 62.7009 232.185 61.0388 231.375 59.8153C230.576 58.5917 229.414 58.0615 227.899 58.0615C225.938 58.0615 224.516 58.8466 223.8 60.3353V69.971C224.599 71.5515 225.938 72.3366 227.992 72.3366C230.929 72.2449 232.538 69.7977 232.538 64.8931Z" fill="#999999"/>
<path d="M13.5051 22.7406H5.27551V16.6635H13.5051C14.6259 16.6635 15.5391 16.48 16.2344 16.1027C16.9297 15.7254 17.4382 15.2156 17.7599 14.5528C18.092 13.8798 18.2581 13.1253 18.2581 12.2892C18.2581 11.3919 18.092 10.566 17.7599 9.80121C17.4382 9.03647 16.9297 8.42468 16.2344 7.96583C15.5391 7.4866 14.6259 7.25208 13.5051 7.25208H8.27468V33.8345H0.294189V1.15454H13.5051C16.1618 1.15454 18.4449 1.63378 20.3544 2.59225C22.2846 3.55073 23.7583 4.86608 24.7857 6.53832C25.8131 8.20036 26.332 10.0969 26.332 12.2382C26.332 14.3795 25.8131 16.1843 24.7857 17.7545C23.7583 19.3248 22.2743 20.5484 20.3544 21.4355C18.4449 22.3022 16.1618 22.7406 13.5051 22.7406Z" fill="#9F0D1A"/>
<path d="M58.6588 16.8368V18.1624C58.6588 20.6605 58.3059 22.9038 57.5898 24.8921C56.8945 26.8702 55.8983 28.5526 54.6114 29.9598C53.3246 31.3465 51.7991 32.4171 50.0348 33.1717C48.281 33.9058 46.33 34.2729 44.2129 34.2729C42.0959 34.2729 40.1137 33.9058 38.3495 33.1717C36.5957 32.4273 35.0598 31.3567 33.7522 29.9598C32.4653 28.5526 31.4587 26.86 30.753 24.8921C30.0577 22.9038 29.7048 20.6605 29.7048 18.1624V16.8368C29.7048 14.3387 30.0577 12.0954 30.753 10.1071C31.4691 8.11876 32.4549 6.42613 33.7314 5.0394C35.0182 3.63228 36.5438 2.56164 38.308 1.82749C40.0826 1.08314 42.0336 0.705872 44.1714 0.705872C46.3092 0.705872 48.2395 1.08314 49.9933 1.82749C51.7679 2.56164 53.3038 3.63228 54.5907 5.0394C55.8775 6.42613 56.8842 8.11876 57.5898 10.1071C58.3059 12.0954 58.6588 14.3387 58.6588 16.8368ZM50.5641 18.1624V16.796C50.5641 15.185 50.4188 13.7575 50.1282 12.5339C49.8584 11.2899 49.4433 10.2498 48.9037 9.41372C48.3536 8.57761 47.6791 7.94542 46.88 7.52736C46.0913 7.08891 45.1884 6.87478 44.1714 6.87478C43.1544 6.87478 42.1893 7.08891 41.4006 7.52736C40.6118 7.94542 39.9477 8.57761 39.4184 9.41372C38.8891 10.2498 38.4844 11.2899 38.2146 12.5339C37.9551 13.7575 37.8306 15.185 37.8306 16.796V18.1624C37.8306 19.7632 37.9551 21.1805 38.2146 22.4245C38.4844 23.6481 38.8891 24.6882 39.4184 25.5447C39.9684 26.4012 40.6326 27.0436 41.4213 27.4718C42.2204 27.9103 43.1544 28.1244 44.2233 28.1244C45.2922 28.1244 46.1432 27.9103 46.9319 27.4718C47.7206 27.0334 48.3848 26.391 48.914 25.5447C49.4641 24.6882 49.8688 23.6481 50.1386 22.4245C50.4292 21.1805 50.5745 19.7632 50.5745 18.1624H50.5641Z" fill="#9F0D1A"/>
<path d="M79.8604 25.1368C79.8604 24.627 79.7877 24.1681 79.6321 23.7705C79.4764 23.3524 79.1962 22.9649 78.7915 22.608C78.3868 22.2512 77.7952 21.8943 77.0169 21.5272C76.2593 21.1499 75.2631 20.7625 74.0177 20.3648C72.5648 19.8856 71.1638 19.3452 69.8147 18.7538C68.4656 18.142 67.2618 17.4282 66.2033 16.6227C65.1447 15.7968 64.3042 14.8383 63.6815 13.7473C63.0588 12.6358 62.7475 11.3511 62.7475 9.89296C62.7475 8.43485 63.0692 7.22146 63.7022 6.09984C64.3353 4.96802 65.2278 3.99935 66.3589 3.20402C67.5109 2.39849 68.86 1.7867 70.4063 1.36864C71.9525 0.930192 73.6441 0.716064 75.481 0.716064C77.9094 0.716064 80.0472 1.13412 81.8944 1.97024C83.7624 2.79616 85.2153 3.96876 86.2635 5.48805C87.322 6.99714 87.8513 8.78153 87.8513 10.8514H79.9123C79.9123 10.0255 79.7359 9.30156 79.3934 8.67957C79.0613 8.04738 78.5528 7.55795 77.8679 7.20107C77.1829 6.84419 76.332 6.66065 75.2942 6.66065C74.2564 6.66065 73.4469 6.8136 72.7724 7.1093C72.0875 7.405 71.5789 7.81286 71.2261 8.32269C70.8733 8.81212 70.7072 9.36274 70.7072 9.96433C70.7072 10.4538 70.8421 10.9024 71.112 11.3103C71.4025 11.6977 71.7969 12.0648 72.3158 12.4115C72.845 12.7582 73.4885 13.0845 74.2253 13.4006C74.9829 13.7167 75.8338 14.0226 76.7678 14.3183C78.5217 14.8689 80.0887 15.4909 81.4586 16.1842C82.8388 16.8572 84.0011 17.6321 84.9351 18.4988C85.8899 19.3554 86.6059 20.324 87.0937 21.4151C87.5918 22.5061 87.8409 23.7399 87.8409 25.1164C87.8409 26.5847 87.5503 27.8797 86.9795 29.0217C86.3984 30.1535 85.5785 31.1222 84.4992 31.9175C83.42 32.6924 82.1331 33.2838 80.6284 33.6917C79.1236 34.0996 77.4528 34.2933 75.6055 34.2933C73.9036 34.2933 72.2328 34.0792 70.5827 33.6611C68.943 33.2227 67.459 32.5701 66.1203 31.683C64.7815 30.7857 63.7126 29.6437 62.9135 28.2467C62.1248 26.8396 61.7305 25.1776 61.7305 23.2402H69.7421C69.7421 24.1987 69.8666 25.0042 70.1261 25.667C70.3855 26.3298 70.7591 26.86 71.2676 27.2577C71.7658 27.6451 72.378 27.9306 73.1149 28.1142C73.8413 28.2773 74.6819 28.3589 75.6159 28.3589C76.6329 28.3589 77.4528 28.2162 78.0754 27.9306C78.6981 27.6349 79.1547 27.2475 79.4453 26.7682C79.7359 26.2788 79.8812 25.7384 79.8812 25.1572L79.8604 25.1368Z" fill="#9F0D1A"/>
<path d="M107.994 1.15454V33.8141H100.014V1.15454H107.994ZM117.957 1.15454V7.23168H90.2795V1.15454H117.957Z" fill="#9F0D1A"/>
<path d="M166.577 16.3882V29.8068C166.016 30.4186 165.155 31.0814 163.982 31.7849C162.83 32.4681 161.378 33.0595 159.613 33.5592C157.849 34.0486 155.784 34.3035 153.407 34.3035C151.207 34.3035 149.215 33.9568 147.43 33.2736C145.645 32.5701 144.099 31.5504 142.812 30.2045C141.535 28.8483 140.549 27.1863 139.854 25.2286C139.169 23.2504 138.827 20.997 138.827 18.4581V16.6431C138.827 14.1041 139.179 11.8405 139.875 9.87257C140.57 7.89444 141.546 6.2426 142.812 4.89665C144.088 3.54051 145.583 2.50046 147.295 1.7969C149.018 1.05255 150.917 0.705872 152.982 0.705872C156.033 0.705872 158.513 1.18511 160.423 2.14358C162.332 3.08167 163.785 4.39702 164.771 6.06926C165.757 7.73129 166.359 9.64824 166.566 11.8303H158.897C158.742 10.7495 158.461 9.84198 158.036 9.09763C157.621 8.33289 157.029 7.76188 156.261 7.37441C155.493 6.96655 154.487 6.77282 153.262 6.77282C152.307 6.77282 151.436 6.97675 150.647 7.37441C149.879 7.78228 149.215 8.39407 148.665 9.20979C148.115 10.0153 147.7 11.035 147.388 12.2586C147.098 13.4821 146.952 14.9199 146.952 16.5615V18.4275C146.952 20.0589 147.087 21.4864 147.368 22.71C147.658 23.9336 148.084 24.9635 148.644 25.7792C149.225 26.5847 149.952 27.1965 150.834 27.6146C151.726 28.0224 152.785 28.2162 153.999 28.2162C154.85 28.2162 155.576 28.1448 156.178 28.0122C156.791 27.8593 157.289 27.6859 157.683 27.4718C158.088 27.2475 158.399 27.0334 158.617 26.8396V21.7719H153.065V16.3678H166.598L166.577 16.3882Z" fill="#9F0D1A"/>
<path d="M171.247 1.17493H184.281C186.834 1.17493 189.045 1.5522 190.923 2.29655C192.801 3.04089 194.254 4.15232 195.271 5.62062C196.299 7.08892 196.818 8.89371 196.818 11.0452C196.818 12.9112 196.517 14.4814 195.936 15.7356C195.344 16.9898 194.514 18.0298 193.455 18.8557C192.407 19.6613 191.193 20.324 189.792 20.8543L187.177 22.3124H176.239L176.197 16.2352H184.292C185.309 16.2352 186.149 16.0517 186.813 15.6948C187.478 15.3379 187.976 14.8281 188.318 14.1653C188.671 13.4924 188.837 12.697 188.837 11.7691C188.837 10.8413 188.661 10.0153 188.318 9.34236C187.965 8.66939 187.457 8.14936 186.772 7.79249C186.108 7.43561 185.278 7.25207 184.292 7.25207H179.238V33.8345H171.257V1.17493H171.247ZM189.377 33.8345L182.05 19.386L190.508 19.3452L197.928 33.498V33.8345H189.377Z" fill="#9F0D1A"/>
<path d="M215.664 8.0372L207.59 33.8345H199.018L211.181 1.17493H216.618L215.664 8.0372ZM222.347 33.8345L214.252 8.0372L213.204 1.17493H218.704L230.94 33.8345H222.337H222.347ZM222.025 21.6496V27.7267H205.037V21.6496H222.025Z" fill="#9F0D1A"/>
<path d="M244.14 33.8447H236.793L236.834 27.7879H244.14C245.655 27.7879 246.942 27.431 247.98 26.7071C249.039 25.9933 249.848 24.9227 250.388 23.4952C250.948 22.0575 251.228 20.2935 251.228 18.2032V16.7858C251.228 15.2156 251.073 13.839 250.751 12.6562C250.45 11.4632 249.993 10.464 249.381 9.66865C248.769 8.86312 248.011 8.25133 247.108 7.85367C246.216 7.4458 245.178 7.25207 244.016 7.25207H236.648V1.17493H244.016C246.257 1.17493 248.312 1.5522 250.18 2.31694C252.058 3.06129 253.688 4.14212 255.047 5.54925C256.428 6.93598 257.486 8.58782 258.233 10.5048C258.991 12.4013 259.375 14.512 259.375 16.8266V18.193C259.375 20.4974 258.991 22.6081 258.233 24.5148C257.486 26.4318 256.438 28.0836 255.068 29.4703C253.698 30.8571 252.09 31.9379 250.222 32.7027C248.374 33.447 246.34 33.8243 244.13 33.8243L244.14 33.8447ZM241.369 1.17493V33.8447H233.389V1.17493H241.369Z" fill="#9F0D1A"/>
<path d="M281.51 1.17493H289.491V22.5163C289.491 25.0552 288.951 27.2169 287.872 28.9809C286.793 30.7347 285.288 32.0501 283.347 32.9474C281.407 33.8447 279.124 34.2933 276.498 34.2933C273.872 34.2933 271.62 33.8447 269.649 32.9474C267.687 32.0501 266.162 30.7245 265.051 28.9809C263.962 27.2169 263.412 25.0654 263.412 22.5163V1.17493H271.413V22.5163C271.413 23.8622 271.61 24.9635 272.004 25.8098C272.399 26.6459 272.97 27.2577 273.737 27.6452C274.495 28.0326 275.419 28.2264 276.488 28.2264C277.557 28.2264 278.501 28.0326 279.238 27.6452C279.985 27.2577 280.545 26.6459 280.919 25.8098C281.292 24.9533 281.49 23.8622 281.49 22.5163V1.17493H281.51Z" fill="#9F0D1A"/>
<path d="M308.057 8.0372L299.983 33.8345H291.411L303.584 1.17493H309.022L308.067 8.0372H308.057ZM314.74 33.8345L306.645 8.0372L305.597 1.17493H311.097L323.333 33.8345H314.73H314.74ZM314.418 21.6496V27.7267H297.43V21.6496H314.418Z" fill="#9F0D1A"/>
<path d="M339.086 1.17493V33.8447H331.106V1.17493H339.086ZM349.049 1.17493V7.25207H321.371V1.17493H349.049Z" fill="#9F0D1A"/>
<path d="M375.232 27.7879V33.8447H357.579V27.7879H375.232ZM360.423 1.17493V33.8447H352.442V1.17493H360.423ZM372.959 14.1449V19.9978H357.579V14.1449H372.959ZM375.305 1.17493V7.25207H357.579V1.17493H375.305Z" fill="#9F0D1A"/>
</g>
<defs>
<clipPath id="clip0_8_379">
<rect width="375" height="85.2941" fill="white" transform="translate(0.294189 0.705872)"/>
</clipPath>
</defs>
</svg>
