<svg width="57" height="43" viewBox="0 0 57 43" fill="none" xmlns="http://www.w3.org/2000/svg">
<path d="M56.5 30.5C56.5 33.8 55.35 36.65 53.05 39.05C50.75 41.35 48 42.5 44.8 42.5C43 42.5 41.3 42.15 39.7 41.45C38.1 40.75 36.65 39.75 35.35 38.45C34.15 37.15 33.15 35.55 32.35 33.65C31.65 31.75 31.3 29.6 31.3 27.2C31.3 22.4 32.35 17.85 34.45 13.55C36.65 9.15 39.65 5.25 43.45 1.85C44.45 0.849999 45.8 0.349999 47.5 0.349999C49.2 0.349999 50.5 0.949998 51.4 2.14999C52.4 3.25 52.9 4.3 52.9 5.3C52.9 6.7 52.45 7.75 51.55 8.44999C49.55 10.05 47.8 11.9 46.3 14C44.9 16.1 43.95 18.15 43.45 20.15C43.65 20.05 44.05 19.95 44.65 19.85C45.25 19.75 45.8 19.7 46.3 19.7C49.2 19.7 51.6 20.7 53.5 22.7C55.5 24.7 56.5 27.3 56.5 30.5ZM26.05 30.5C26.05 33.8 24.9 36.65 22.6 39.05C20.3 41.35 17.55 42.5 14.35 42.5C12.55 42.5 10.85 42.15 9.25 41.45C7.65 40.75 6.2 39.75 4.9 38.45C3.7 37.15 2.7 35.55 1.9 33.65C1.2 31.75 0.85 29.6 0.85 27.2C0.85 22.4 1.9 17.85 4 13.55C6.2 9.15 9.2 5.25 13 1.85C14 0.849999 15.35 0.349999 17.05 0.349999C18.85 0.349999 20.2 0.899998 21.1 2C22 3.09999 22.45 4.19999 22.45 5.3C22.45 6.7 22 7.75 21.1 8.44999C19.1 10.05 17.35 11.9 15.85 14C14.45 16.1 13.5 18.15 13 20.15C13.2 20.05 13.6 19.95 14.2 19.85C14.8 19.75 15.35 19.7 15.85 19.7C18.75 19.7 21.15 20.7 23.05 22.7C25.05 24.7 26.05 27.3 26.05 30.5Z" fill="#525252"/>
</svg>
